<svg aria-hidden="true" style="position: absolute; width: 0; height: 0; overflow: hidden;" version="1.1" xmlns="http://www.w3.org/2000/svg" xmlns:xlink="http://www.w3.org/1999/xlink">
<defs>
<symbol id="icon-alert-circle" viewBox="0 0 24 24">
<path d="M23 12c0-3.037-1.232-5.789-3.222-7.778s-4.741-3.222-7.778-3.222-5.789 1.232-7.778 3.222-3.222 4.741-3.222 7.778 1.232 5.789 3.222 7.778 4.741 3.222 7.778 3.222 5.789-1.232 7.778-3.222 3.222-4.741 3.222-7.778zM21 12c0 2.486-1.006 4.734-2.636 6.364s-3.878 2.636-6.364 2.636-4.734-1.006-6.364-2.636-2.636-3.878-2.636-6.364 1.006-4.734 2.636-6.364 3.878-2.636 6.364-2.636 4.734 1.006 6.364 2.636 2.636 3.878 2.636 6.364zM11 8v4c0 0.552 0.448 1 1 1s1-0.448 1-1v-4c0-0.552-0.448-1-1-1s-1 0.448-1 1zM12 17c0.552 0 1-0.448 1-1s-0.448-1-1-1-1 0.448-1 1 0.448 1 1 1z"></path>
</symbol>
<symbol id="icon-align-center" viewBox="0 0 24 24">
<path d="M18 9h-12c-0.552 0-1 0.448-1 1s0.448 1 1 1h12c0.552 0 1-0.448 1-1s-0.448-1-1-1zM21 5h-18c-0.552 0-1 0.448-1 1s0.448 1 1 1h18c0.552 0 1-0.448 1-1s-0.448-1-1-1zM21 13h-18c-0.552 0-1 0.448-1 1s0.448 1 1 1h18c0.552 0 1-0.448 1-1s-0.448-1-1-1zM18 17h-12c-0.552 0-1 0.448-1 1s0.448 1 1 1h12c0.552 0 1-0.448 1-1s-0.448-1-1-1z"></path>
</symbol>
<symbol id="icon-align-justify" viewBox="0 0 24 24">
<path d="M21 9h-18c-0.552 0-1 0.448-1 1s0.448 1 1 1h18c0.552 0 1-0.448 1-1s-0.448-1-1-1zM21 5h-18c-0.552 0-1 0.448-1 1s0.448 1 1 1h18c0.552 0 1-0.448 1-1s-0.448-1-1-1zM21 13h-18c-0.552 0-1 0.448-1 1s0.448 1 1 1h18c0.552 0 1-0.448 1-1s-0.448-1-1-1zM21 17h-18c-0.552 0-1 0.448-1 1s0.448 1 1 1h18c0.552 0 1-0.448 1-1s-0.448-1-1-1z"></path>
</symbol>
<symbol id="icon-align-left" viewBox="0 0 24 24">
<path d="M17 9h-14c-0.552 0-1 0.448-1 1s0.448 1 1 1h14c0.552 0 1-0.448 1-1s-0.448-1-1-1zM21 5h-18c-0.552 0-1 0.448-1 1s0.448 1 1 1h18c0.552 0 1-0.448 1-1s-0.448-1-1-1zM21 13h-18c-0.552 0-1 0.448-1 1s0.448 1 1 1h18c0.552 0 1-0.448 1-1s-0.448-1-1-1zM17 17h-14c-0.552 0-1 0.448-1 1s0.448 1 1 1h14c0.552 0 1-0.448 1-1s-0.448-1-1-1z"></path>
</symbol>
<symbol id="icon-align-right" viewBox="0 0 24 24">
<path d="M21 9h-14c-0.552 0-1 0.448-1 1s0.448 1 1 1h14c0.552 0 1-0.448 1-1s-0.448-1-1-1zM21 5h-18c-0.552 0-1 0.448-1 1s0.448 1 1 1h18c0.552 0 1-0.448 1-1s-0.448-1-1-1zM21 13h-18c-0.552 0-1 0.448-1 1s0.448 1 1 1h18c0.552 0 1-0.448 1-1s-0.448-1-1-1zM21 17h-14c-0.552 0-1 0.448-1 1s0.448 1 1 1h14c0.552 0 1-0.448 1-1s-0.448-1-1-1z"></path>
</symbol>
<symbol id="icon-arrow-down" viewBox="0 0 24 24">
<path d="M18.293 11.293l-5.293 5.293v-11.586c0-0.552-0.448-1-1-1s-1 0.448-1 1v11.586l-5.293-5.293c-0.391-0.391-1.024-0.391-1.414 0s-0.391 1.024 0 1.414l7 7c0.092 0.092 0.202 0.166 0.324 0.217 0.245 0.101 0.521 0.101 0.766 0 0.118-0.049 0.228-0.121 0.324-0.217l7-7c0.391-0.391 0.391-1.024 0-1.414s-1.024-0.391-1.414 0z"></path>
</symbol>
<symbol id="icon-arrow-left" viewBox="0 0 24 24">
<path d="M12.707 18.293l-5.293-5.293h11.586c0.552 0 1-0.448 1-1s-0.448-1-1-1h-11.586l5.293-5.293c0.391-0.391 0.391-1.024 0-1.414s-1.024-0.391-1.414 0l-7 7c-0.096 0.096-0.168 0.206-0.217 0.324-0.051 0.122-0.076 0.253-0.076 0.383 0 0.256 0.098 0.512 0.293 0.707l7 7c0.391 0.391 1.024 0.391 1.414 0s0.391-1.024 0-1.414z"></path>
</symbol>
<symbol id="icon-arrow-right" viewBox="0 0 24 24">
<path d="M11.293 5.707l5.293 5.293h-11.586c-0.552 0-1 0.448-1 1s0.448 1 1 1h11.586l-5.293 5.293c-0.391 0.391-0.391 1.024 0 1.414s1.024 0.391 1.414 0l7-7c0.092-0.092 0.166-0.202 0.217-0.324 0.101-0.245 0.101-0.521 0-0.766-0.049-0.118-0.121-0.228-0.217-0.324l-7-7c-0.391-0.391-1.024-0.391-1.414 0s-0.391 1.024 0 1.414z"></path>
</symbol>
<symbol id="icon-arrow-up" viewBox="0 0 24 24">
<path d="M5.707 12.707l5.293-5.293v11.586c0 0.552 0.448 1 1 1s1-0.448 1-1v-11.586l5.293 5.293c0.391 0.391 1.024 0.391 1.414 0s0.391-1.024 0-1.414l-7-7c-0.092-0.092-0.202-0.166-0.324-0.217s-0.253-0.076-0.383-0.076c-0.256 0-0.512 0.098-0.707 0.293l-7 7c-0.391 0.391-0.391 1.024 0 1.414s1.024 0.391 1.414 0z"></path>
</symbol>
<symbol id="icon-award" viewBox="0 0 24 24">
<path d="M14.986 15.424l0.75 5.652-3.221-1.933c-0.311-0.184-0.703-0.196-1.029 0l-3.221 1.933 0.751-5.651c0.921 0.371 1.929 0.575 2.984 0.575s2.063-0.205 2.986-0.576zM15.332 12.991c-0.058 0.030-0.113 0.065-0.163 0.105-0.92 0.573-2.005 0.904-3.169 0.904-1.657 0-3.156-0.67-4.243-1.757s-1.757-2.586-1.757-4.243 0.67-3.156 1.757-4.243 2.586-1.757 4.243-1.757 3.156 0.67 4.243 1.757 1.757 2.586 1.757 4.243-0.67 3.156-1.757 4.243c-0.278 0.278-0.583 0.529-0.911 0.748zM7.14 14.355l-1.131 8.513c-0.073 0.547 0.312 1.050 0.86 1.123 0.234 0.031 0.461-0.022 0.646-0.134l4.485-2.691 4.486 2.691c0.474 0.284 1.088 0.131 1.372-0.343 0.122-0.203 0.163-0.431 0.134-0.646l-1.13-8.515c0.28-0.215 0.546-0.448 0.795-0.697 1.446-1.446 2.343-3.447 2.343-5.656s-0.897-4.21-2.343-5.657-3.448-2.343-5.657-2.343-4.21 0.897-5.657 2.343-2.343 3.448-2.343 5.657 0.897 4.21 2.343 5.657c0.25 0.25 0.516 0.483 0.796 0.698z"></path>
</symbol>
<symbol id="icon-bell" viewBox="0 0 24 24">
<path d="M17 8c0 4.011 0.947 6.52 1.851 8h-13.702c0.904-1.48 1.851-3.989 1.851-8 0-1.381 0.559-2.63 1.464-3.536s2.155-1.464 3.536-1.464 2.63 0.559 3.536 1.464 1.464 2.155 1.464 3.536zM19 8c0-1.933-0.785-3.684-2.050-4.95s-3.017-2.050-4.95-2.050-3.684 0.785-4.95 2.050-2.050 3.017-2.050 4.95c0 6.127-2.393 8.047-2.563 8.174-0.453 0.308-0.573 0.924-0.269 1.381 0.192 0.287 0.506 0.443 0.832 0.445h18c0.552 0 1-0.448 1-1 0-0.339-0.168-0.638-0.429-0.821-0.176-0.13-2.571-2.050-2.571-8.179zM12.865 20.498c-0.139 0.239-0.359 0.399-0.608 0.465s-0.52 0.037-0.759-0.101c-0.162-0.094-0.283-0.222-0.359-0.357-0.274-0.48-0.884-0.647-1.364-0.373s-0.647 0.884-0.373 1.364c0.25 0.439 0.623 0.823 1.093 1.096 0.716 0.416 1.535 0.501 2.276 0.304s1.409-0.678 1.824-1.394c0.277-0.478 0.114-1.090-0.363-1.367s-1.090-0.114-1.367 0.363z"></path>
</symbol>
<symbol id="icon-bell-off" viewBox="0 0 24 24">
<path d="M12.865 20.498c-0.139 0.239-0.359 0.399-0.608 0.465s-0.52 0.037-0.759-0.101c-0.162-0.094-0.283-0.222-0.359-0.357-0.274-0.48-0.884-0.647-1.364-0.373s-0.647 0.884-0.373 1.364c0.25 0.439 0.623 0.823 1.093 1.096 0.716 0.416 1.535 0.501 2.276 0.304s1.409-0.678 1.824-1.394c0.277-0.478 0.114-1.090-0.363-1.367s-1.090-0.114-1.367 0.363zM19 7.977c-0.004-1.923-0.784-3.666-2.043-4.928-1.264-1.268-3.014-2.055-4.947-2.058-1.448-0.002-2.799 0.437-3.9 1.18-0.457 0.309-0.578 0.931-0.269 1.389s0.931 0.578 1.389 0.269c0.764-0.516 1.708-0.829 2.73-0.837 1.448 0.011 2.684 0.569 3.581 1.47 0.902 0.905 1.458 2.15 1.459 3.526-0.042 1.658 0.173 3.476 0.665 5.277 0.146 0.533 0.695 0.847 1.228 0.701s0.847-0.695 0.701-1.228c-0.443-1.625-0.632-3.25-0.594-4.708 0-0.005 0-0.011 0-0.016 0-0.003 0-0.006 0-0.009zM6.996 8.411l7.59 7.589h-9.437c0.872-1.428 1.783-3.812 1.847-7.589zM0.293 1.707l4.856 4.856c-0.106 0.493-0.155 0.984-0.149 1.45 0 6.114-2.393 8.034-2.563 8.161-0.453 0.308-0.573 0.924-0.269 1.381 0.192 0.287 0.506 0.443 0.832 0.445h13.586l5.707 5.707c0.391 0.391 1.024 0.391 1.414 0s0.391-1.024 0-1.414l-22-22c-0.391-0.391-1.024-0.391-1.414 0s-0.391 1.024 0 1.414z"></path>
</symbol>
<symbol id="icon-bookmark" viewBox="0 0 24 24">
<path d="M18.419 21.814c0.161 0.116 0.363 0.186 0.581 0.186 0.552 0 1-0.448 1-1v-16c0-0.828-0.337-1.58-0.879-2.121s-1.293-0.879-2.121-0.879h-10c-0.828 0-1.58 0.337-2.121 0.879s-0.879 1.293-0.879 2.121v16c-0.001 0.199 0.060 0.404 0.186 0.581 0.321 0.449 0.946 0.554 1.395 0.232l6.419-4.584zM18 19.057l-5.419-3.871c-0.355-0.254-0.819-0.242-1.162 0l-5.419 3.871v-14.057c0-0.276 0.111-0.525 0.293-0.707s0.431-0.293 0.707-0.293h10c0.276 0 0.525 0.111 0.707 0.293s0.293 0.431 0.293 0.707z"></path>
</symbol>
<symbol id="icon-camera" viewBox="0 0 24 24">
<path d="M24 19v-11c0-0.828-0.337-1.58-0.879-2.121s-1.293-0.879-2.121-0.879h-3.465l-1.703-2.555c-0.182-0.27-0.486-0.445-0.832-0.445h-6c-0.326 0.002-0.64 0.158-0.832 0.445l-1.703 2.555h-3.465c-0.828 0-1.58 0.337-2.121 0.879s-0.879 1.293-0.879 2.121v11c0 0.828 0.337 1.58 0.879 2.121s1.293 0.879 2.121 0.879h18c0.828 0 1.58-0.337 2.121-0.879s0.879-1.293 0.879-2.121zM22 19c0 0.276-0.111 0.525-0.293 0.707s-0.431 0.293-0.707 0.293h-18c-0.276 0-0.525-0.111-0.707-0.293s-0.293-0.431-0.293-0.707v-11c0-0.276 0.111-0.525 0.293-0.707s0.431-0.293 0.707-0.293h4c0.346 0 0.65-0.175 0.832-0.445l1.703-2.555h4.93l1.703 2.555c0.192 0.287 0.506 0.443 0.832 0.445h4c0.276 0 0.525 0.111 0.707 0.293s0.293 0.431 0.293 0.707zM17 13c0-1.38-0.561-2.632-1.464-3.536s-2.156-1.464-3.536-1.464-2.632 0.561-3.536 1.464-1.464 2.156-1.464 3.536 0.561 2.632 1.464 3.536 2.156 1.464 3.536 1.464 2.632-0.561 3.536-1.464 1.464-2.156 1.464-3.536zM15 13c0 0.829-0.335 1.577-0.879 2.121s-1.292 0.879-2.121 0.879-1.577-0.335-2.121-0.879-0.879-1.292-0.879-2.121 0.335-1.577 0.879-2.121 1.292-0.879 2.121-0.879 1.577 0.335 2.121 0.879 0.879 1.292 0.879 2.121z"></path>
</symbol>
<symbol id="icon-check" viewBox="0 0 24 24">
<path d="M19.293 5.293l-10.293 10.293-4.293-4.293c-0.391-0.391-1.024-0.391-1.414 0s-0.391 1.024 0 1.414l5 5c0.391 0.391 1.024 0.391 1.414 0l11-11c0.391-0.391 0.391-1.024 0-1.414s-1.024-0.391-1.414 0z"></path>
</symbol>
<symbol id="icon-check-circle" viewBox="0 0 24 24">
<path d="M21 11.080v0.92c-0.001 2.485-1.009 4.733-2.64 6.362s-3.88 2.634-6.365 2.632-4.734-1.009-6.362-2.64-2.634-3.879-2.633-6.365 1.009-4.733 2.64-6.362 3.88-2.634 6.365-2.633c1.33 0.001 2.586 0.289 3.649 0.775 0.502 0.23 1.096 0.008 1.325-0.494s0.008-1.096-0.494-1.325c-1.327-0.606-2.866-0.955-4.479-0.956-3.037-0.002-5.789 1.229-7.78 3.217s-3.224 4.74-3.226 7.777 1.229 5.789 3.217 7.78 4.739 3.225 7.776 3.226 5.789-1.229 7.78-3.217 3.225-4.739 3.227-7.777v-0.92c0-0.552-0.448-1-1-1s-1 0.448-1 1zM21.293 3.293l-9.293 9.302-2.293-2.292c-0.391-0.391-1.024-0.391-1.414 0s-0.391 1.024 0 1.414l3 3c0.391 0.391 1.024 0.39 1.415 0l10-10.010c0.39-0.391 0.39-1.024-0.001-1.414s-1.024-0.39-1.414 0.001z"></path>
</symbol>
<symbol id="icon-check-square" viewBox="0 0 24 24">
<path d="M8.293 11.707l3 3c0.391 0.391 1.024 0.391 1.414 0l10-10c0.391-0.391 0.391-1.024 0-1.414s-1.024-0.391-1.414 0l-9.293 9.293-2.293-2.293c-0.391-0.391-1.024-0.391-1.414 0s-0.391 1.024 0 1.414zM20 12v7c0 0.276-0.111 0.525-0.293 0.707s-0.431 0.293-0.707 0.293h-14c-0.276 0-0.525-0.111-0.707-0.293s-0.293-0.431-0.293-0.707v-14c0-0.276 0.111-0.525 0.293-0.707s0.431-0.293 0.707-0.293h11c0.552 0 1-0.448 1-1s-0.448-1-1-1h-11c-0.828 0-1.58 0.337-2.121 0.879s-0.879 1.293-0.879 2.121v14c0 0.828 0.337 1.58 0.879 2.121s1.293 0.879 2.121 0.879h14c0.828 0 1.58-0.337 2.121-0.879s0.879-1.293 0.879-2.121v-7c0-0.552-0.448-1-1-1s-1 0.448-1 1z"></path>
</symbol>
<symbol id="icon-chevron-down" viewBox="0 0 24 24">
<path d="M5.293 9.707l6 6c0.391 0.391 1.024 0.391 1.414 0l6-6c0.391-0.391 0.391-1.024 0-1.414s-1.024-0.391-1.414 0l-5.293 5.293-5.293-5.293c-0.391-0.391-1.024-0.391-1.414 0s-0.391 1.024 0 1.414z"></path>
</symbol>
<symbol id="icon-chevron-left" viewBox="0 0 24 24">
<path d="M15.707 17.293l-5.293-5.293 5.293-5.293c0.391-0.391 0.391-1.024 0-1.414s-1.024-0.391-1.414 0l-6 6c-0.391 0.391-0.391 1.024 0 1.414l6 6c0.391 0.391 1.024 0.391 1.414 0s0.391-1.024 0-1.414z"></path>
</symbol>
<symbol id="icon-chevron-right" viewBox="0 0 24 24">
<path d="M9.707 18.707l6-6c0.391-0.391 0.391-1.024 0-1.414l-6-6c-0.391-0.391-1.024-0.391-1.414 0s-0.391 1.024 0 1.414l5.293 5.293-5.293 5.293c-0.391 0.391-0.391 1.024 0 1.414s1.024 0.391 1.414 0z"></path>
</symbol>
<symbol id="icon-chevron-up" viewBox="0 0 24 24">
<path d="M18.707 14.293l-6-6c-0.391-0.391-1.024-0.391-1.414 0l-6 6c-0.391 0.391-0.391 1.024 0 1.414s1.024 0.391 1.414 0l5.293-5.293 5.293 5.293c0.391 0.391 1.024 0.391 1.414 0s0.391-1.024 0-1.414z"></path>
</symbol>
<symbol id="icon-chevrons-down" viewBox="0 0 24 24">
<path d="M6.293 13.707l5 5c0.391 0.391 1.024 0.391 1.414 0l5-5c0.391-0.391 0.391-1.024 0-1.414s-1.024-0.391-1.414 0l-4.293 4.293-4.293-4.293c-0.391-0.391-1.024-0.391-1.414 0s-0.391 1.024 0 1.414zM6.293 6.707l5 5c0.391 0.391 1.024 0.391 1.414 0l5-5c0.391-0.391 0.391-1.024 0-1.414s-1.024-0.391-1.414 0l-4.293 4.293-4.293-4.293c-0.391-0.391-1.024-0.391-1.414 0s-0.391 1.024 0 1.414z"></path>
</symbol>
<symbol id="icon-chevrons-left" viewBox="0 0 24 24">
<path d="M11.707 16.293l-4.293-4.293 4.293-4.293c0.391-0.391 0.391-1.024 0-1.414s-1.024-0.391-1.414 0l-5 5c-0.391 0.391-0.391 1.024 0 1.414l5 5c0.391 0.391 1.024 0.391 1.414 0s0.391-1.024 0-1.414zM18.707 16.293l-4.293-4.293 4.293-4.293c0.391-0.391 0.391-1.024 0-1.414s-1.024-0.391-1.414 0l-5 5c-0.391 0.391-0.391 1.024 0 1.414l5 5c0.391 0.391 1.024 0.391 1.414 0s0.391-1.024 0-1.414z"></path>
</symbol>
<symbol id="icon-chevrons-right" viewBox="0 0 24 24">
<path d="M13.707 17.707l5-5c0.391-0.391 0.391-1.024 0-1.414l-5-5c-0.391-0.391-1.024-0.391-1.414 0s-0.391 1.024 0 1.414l4.293 4.293-4.293 4.293c-0.391 0.391-0.391 1.024 0 1.414s1.024 0.391 1.414 0zM6.707 17.707l5-5c0.391-0.391 0.391-1.024 0-1.414l-5-5c-0.391-0.391-1.024-0.391-1.414 0s-0.391 1.024 0 1.414l4.293 4.293-4.293 4.293c-0.391 0.391-0.391 1.024 0 1.414s1.024 0.391 1.414 0z"></path>
</symbol>
<symbol id="icon-chevrons-up" viewBox="0 0 24 24">
<path d="M17.707 10.293l-5-5c-0.391-0.391-1.024-0.391-1.414 0l-5 5c-0.391 0.391-0.391 1.024 0 1.414s1.024 0.391 1.414 0l4.293-4.293 4.293 4.293c0.391 0.391 1.024 0.391 1.414 0s0.391-1.024 0-1.414zM17.707 17.293l-5-5c-0.391-0.391-1.024-0.391-1.414 0l-5 5c-0.391 0.391-0.391 1.024 0 1.414s1.024 0.391 1.414 0l4.293-4.293 4.293 4.293c0.391 0.391 1.024 0.391 1.414 0s0.391-1.024 0-1.414z"></path>
</symbol>
<symbol id="icon-circle" viewBox="0 0 24 24">
<path d="M23 12c0-3.037-1.232-5.789-3.222-7.778s-4.741-3.222-7.778-3.222-5.789 1.232-7.778 3.222-3.222 4.741-3.222 7.778 1.232 5.789 3.222 7.778 4.741 3.222 7.778 3.222 5.789-1.232 7.778-3.222 3.222-4.741 3.222-7.778zM21 12c0 2.486-1.006 4.734-2.636 6.364s-3.878 2.636-6.364 2.636-4.734-1.006-6.364-2.636-2.636-3.878-2.636-6.364 1.006-4.734 2.636-6.364 3.878-2.636 6.364-2.636 4.734 1.006 6.364 2.636 2.636 3.878 2.636 6.364z"></path>
</symbol>
<symbol id="icon-clipboard" viewBox="0 0 24 24">
<path d="M7 5c0 0.552 0.225 1.053 0.586 1.414s0.862 0.586 1.414 0.586h6c0.552 0 1.053-0.225 1.414-0.586s0.586-0.862 0.586-1.414h1c0.276 0 0.525 0.111 0.707 0.293s0.293 0.431 0.293 0.707v14c0 0.276-0.111 0.525-0.293 0.707s-0.431 0.293-0.707 0.293h-12c-0.276 0-0.525-0.111-0.707-0.293s-0.293-0.431-0.293-0.707v-14c0-0.276 0.111-0.525 0.293-0.707s0.431-0.293 0.707-0.293zM9 1c-0.552 0-1.053 0.225-1.414 0.586s-0.586 0.862-0.586 1.414h-1c-0.828 0-1.58 0.337-2.121 0.879s-0.879 1.293-0.879 2.121v14c0 0.828 0.337 1.58 0.879 2.121s1.293 0.879 2.121 0.879h12c0.828 0 1.58-0.337 2.121-0.879s0.879-1.293 0.879-2.121v-14c0-0.828-0.337-1.58-0.879-2.121s-1.293-0.879-2.121-0.879h-1c0-0.552-0.225-1.053-0.586-1.414s-0.862-0.586-1.414-0.586zM9 3h6v2h-6z"></path>
</symbol>
<symbol id="icon-clock" viewBox="0 0 24 24">
<path d="M23 12c0-3.037-1.232-5.789-3.222-7.778s-4.741-3.222-7.778-3.222-5.789 1.232-7.778 3.222-3.222 4.741-3.222 7.778 1.232 5.789 3.222 7.778 4.741 3.222 7.778 3.222 5.789-1.232 7.778-3.222 3.222-4.741 3.222-7.778zM21 12c0 2.486-1.006 4.734-2.636 6.364s-3.878 2.636-6.364 2.636-4.734-1.006-6.364-2.636-2.636-3.878-2.636-6.364 1.006-4.734 2.636-6.364 3.878-2.636 6.364-2.636 4.734 1.006 6.364 2.636 2.636 3.878 2.636 6.364zM11 6v6c0 0.389 0.222 0.727 0.553 0.894l4 2c0.494 0.247 1.095 0.047 1.342-0.447s0.047-1.095-0.447-1.342l-3.448-1.723v-5.382c0-0.552-0.448-1-1-1s-1 0.448-1 1z"></path>
</symbol>
<symbol id="icon-cloud" viewBox="0 0 24 24">
<path d="M18 11c1.105 0 2.103 0.447 2.828 1.172s1.172 1.723 1.172 2.828-0.447 2.103-1.172 2.828-1.723 1.172-2.828 1.172h-8.995c-1.463-0.008-2.853-0.461-4.005-1.258-1.334-0.922-2.348-2.304-2.784-3.992-0.483-1.872-0.163-3.761 0.748-5.305s2.408-2.739 4.28-3.223 3.761-0.163 5.305 0.748 2.739 2.408 3.223 4.28c0.115 0.435 0.505 0.75 0.968 0.75zM18 9h-0.52c-0.725-2.057-2.143-3.708-3.915-4.753-1.983-1.169-4.415-1.583-6.821-0.961s-4.334 2.16-5.503 4.143-1.582 4.415-0.961 6.821c0.56 2.169 1.867 3.951 3.583 5.137 1.478 1.023 3.261 1.603 5.132 1.613h9.005c1.657 0 3.158-0.673 4.243-1.757s1.757-2.586 1.757-4.243-0.673-3.158-1.757-4.243-2.586-1.757-4.243-1.757z"></path>
</symbol>
<symbol id="icon-cloud-drizzle" viewBox="0 0 24 24">
<path d="M7 19v2c0 0.552 0.448 1 1 1s1-0.448 1-1v-2c0-0.552-0.448-1-1-1s-1 0.448-1 1zM7 13v2c0 0.552 0.448 1 1 1s1-0.448 1-1v-2c0-0.552-0.448-1-1-1s-1 0.448-1 1zM15 19v2c0 0.552 0.448 1 1 1s1-0.448 1-1v-2c0-0.552-0.448-1-1-1s-1 0.448-1 1zM15 13v2c0 0.552 0.448 1 1 1s1-0.448 1-1v-2c0-0.552-0.448-1-1-1s-1 0.448-1 1zM11 21v2c0 0.552 0.448 1 1 1s1-0.448 1-1v-2c0-0.552-0.448-1-1-1s-1 0.448-1 1zM11 15v2c0 0.552 0.448 1 1 1s1-0.448 1-1v-2c0-0.552-0.448-1-1-1s-1 0.448-1 1zM20.401 17.496c1.517-0.665 2.623-1.883 3.181-3.312s0.572-3.074-0.092-4.591c-0.574-1.311-1.563-2.316-2.752-2.925-0.836-0.428-1.771-0.66-2.73-0.668h-0.528c-0.725-2.057-2.143-3.708-3.915-4.753-1.983-1.169-4.415-1.582-6.821-0.961s-4.334 2.161-5.503 4.144-1.582 4.415-0.961 6.821c0.509 1.97 1.634 3.623 3.099 4.783 0.433 0.343 1.062 0.27 1.405-0.163s0.27-1.062-0.163-1.405c-1.132-0.897-2.008-2.179-2.405-3.716-0.483-1.871-0.163-3.76 0.748-5.305s2.408-2.739 4.28-3.223 3.761-0.163 5.305 0.748 2.739 2.408 3.223 4.28c0.115 0.435 0.505 0.75 0.968 0.75h1.252c0.647 0.005 1.275 0.162 1.834 0.448 0.793 0.406 1.448 1.073 1.832 1.947 0.443 1.012 0.435 2.106 0.062 3.061s-1.109 1.765-2.121 2.208c-0.506 0.222-0.736 0.811-0.515 1.317s0.811 0.736 1.317 0.515z"></path>
</symbol>
<symbol id="icon-cloud-lightning" viewBox="0 0 24 24">
<path d="M19.199 17.88c1.623-0.33 2.961-1.288 3.808-2.566s1.208-2.884 0.878-4.507c-0.303-1.491-1.136-2.742-2.267-3.592-1.018-0.767-2.279-1.21-3.614-1.215h-0.524c-0.725-2.057-2.143-3.708-3.915-4.753-1.983-1.169-4.415-1.582-6.821-0.961s-4.334 2.162-5.503 4.144-1.582 4.415-0.961 6.821c0.597 2.313 2.043 4.184 3.919 5.365 0.143 0.090 0.288 0.176 0.436 0.258 0.483 0.268 1.092 0.093 1.359-0.39s0.093-1.092-0.39-1.359c-0.115-0.064-0.229-0.131-0.34-0.201-1.462-0.921-2.583-2.374-3.048-4.173-0.483-1.872-0.163-3.761 0.747-5.305s2.408-2.739 4.28-3.223 3.761-0.163 5.305 0.747 2.739 2.408 3.223 4.28c0.116 0.435 0.506 0.75 0.969 0.75h1.256c0.896 0.004 1.74 0.3 2.42 0.812 0.754 0.567 1.307 1.397 1.509 2.392 0.22 1.083-0.019 2.15-0.585 3.005s-1.456 1.491-2.539 1.711c-0.541 0.11-0.891 0.638-0.781 1.179s0.638 0.891 1.179 0.781zM12.168 10.445l-4 6c-0.306 0.46-0.182 1.080 0.277 1.387 0.172 0.115 0.367 0.169 0.555 0.168h4.131l-2.964 4.445c-0.306 0.46-0.182 1.080 0.277 1.387s1.080 0.182 1.387-0.277l4-6c0.106-0.156 0.169-0.348 0.169-0.555 0-0.552-0.448-1-1-1h-4.131l2.964-4.445c0.306-0.46 0.182-1.080-0.277-1.387s-1.080-0.182-1.387 0.277z"></path>
</symbol>
<symbol id="icon-cloud-rain" viewBox="0 0 24 24">
<path d="M15 13v8c0 0.552 0.448 1 1 1s1-0.448 1-1v-8c0-0.552-0.448-1-1-1s-1 0.448-1 1zM7 13v8c0 0.552 0.448 1 1 1s1-0.448 1-1v-8c0-0.552-0.448-1-1-1s-1 0.448-1 1zM11 15v8c0 0.552 0.448 1 1 1s1-0.448 1-1v-8c0-0.552-0.448-1-1-1s-1 0.448-1 1zM20.401 17.496c1.517-0.665 2.623-1.883 3.181-3.312s0.572-3.074-0.092-4.591c-0.574-1.311-1.563-2.316-2.752-2.925-0.836-0.428-1.771-0.66-2.73-0.668h-0.528c-0.725-2.057-2.143-3.708-3.915-4.753-1.983-1.169-4.415-1.582-6.821-0.961s-4.334 2.161-5.503 4.144-1.582 4.415-0.961 6.821c0.509 1.97 1.634 3.623 3.099 4.783 0.433 0.343 1.062 0.27 1.405-0.163s0.27-1.062-0.163-1.405c-1.132-0.897-2.008-2.179-2.405-3.716-0.483-1.871-0.163-3.76 0.748-5.305s2.408-2.739 4.28-3.223 3.761-0.163 5.305 0.748 2.739 2.408 3.223 4.28c0.115 0.435 0.505 0.75 0.968 0.75h1.252c0.647 0.005 1.275 0.162 1.834 0.448 0.793 0.406 1.448 1.073 1.832 1.947 0.443 1.012 0.435 2.106 0.062 3.061s-1.109 1.765-2.121 2.208c-0.506 0.222-0.736 0.811-0.515 1.317s0.811 0.736 1.317 0.515z"></path>
</symbol>
<symbol id="icon-cloud-snow" viewBox="0 0 24 24">
<path d="M20.401 18.496c1.517-0.665 2.623-1.883 3.181-3.312s0.572-3.074-0.092-4.591c-0.574-1.311-1.563-2.316-2.752-2.925-0.836-0.428-1.771-0.66-2.73-0.668h-0.528c-0.725-2.057-2.143-3.708-3.915-4.753-1.983-1.169-4.415-1.582-6.821-0.961s-4.334 2.161-5.503 4.144-1.582 4.415-0.961 6.821c0.509 1.97 1.634 3.623 3.099 4.783 0.433 0.343 1.062 0.27 1.405-0.163s0.27-1.062-0.163-1.405c-1.132-0.897-2.008-2.179-2.405-3.716-0.483-1.871-0.163-3.76 0.748-5.305s2.408-2.739 4.28-3.223 3.761-0.163 5.305 0.748 2.739 2.408 3.223 4.28c0.115 0.435 0.505 0.75 0.968 0.75h1.252c0.647 0.005 1.275 0.162 1.834 0.448 0.793 0.406 1.448 1.073 1.832 1.947 0.443 1.012 0.435 2.106 0.062 3.061s-1.109 1.765-2.121 2.208c-0.506 0.222-0.736 0.811-0.515 1.317s0.811 0.736 1.317 0.515zM8 17c0.552 0 1-0.448 1-1s-0.448-1-1-1-1 0.448-1 1 0.448 1 1 1zM8 21c0.552 0 1-0.448 1-1s-0.448-1-1-1-1 0.448-1 1 0.448 1 1 1zM12 19c0.552 0 1-0.448 1-1s-0.448-1-1-1-1 0.448-1 1 0.448 1 1 1zM12 23c0.552 0 1-0.448 1-1s-0.448-1-1-1-1 0.448-1 1 0.448 1 1 1zM16 17c0.552 0 1-0.448 1-1s-0.448-1-1-1-1 0.448-1 1 0.448 1 1 1zM16 21c0.552 0 1-0.448 1-1s-0.448-1-1-1-1 0.448-1 1 0.448 1 1 1z"></path>
</symbol>
<symbol id="icon-coffee" viewBox="0 0 24 24">
<path d="M19 15v-6c0.829 0 1.577 0.335 2.121 0.879s0.879 1.292 0.879 2.121-0.335 1.577-0.879 2.121-1.292 0.879-2.121 0.879zM2 7c-0.552 0-1 0.448-1 1v9c0 1.38 0.561 2.632 1.464 3.536s2.156 1.464 3.536 1.464h8c1.38 0 2.632-0.561 3.536-1.464s1.464-2.156 1.464-3.536c1.38 0 2.632-0.561 3.536-1.464s1.464-2.156 1.464-3.536-0.561-2.632-1.464-3.536-2.156-1.464-3.536-1.464h-1zM3 9h14v8c0 0.829-0.335 1.577-0.879 2.121s-1.292 0.879-2.121 0.879h-8c-0.829 0-1.577-0.335-2.121-0.879s-0.879-1.292-0.879-2.121zM5 1v3c0 0.552 0.448 1 1 1s1-0.448 1-1v-3c0-0.552-0.448-1-1-1s-1 0.448-1 1zM9 1v3c0 0.552 0.448 1 1 1s1-0.448 1-1v-3c0-0.552-0.448-1-1-1s-1 0.448-1 1zM13 1v3c0 0.552 0.448 1 1 1s1-0.448 1-1v-3c0-0.552-0.448-1-1-1s-1 0.448-1 1z"></path>
</symbol>
<symbol id="icon-download-cloud" viewBox="0 0 24 24">
<path d="M11 12v6.586l-2.293-2.293c-0.391-0.391-1.024-0.391-1.414 0s-0.391 1.024 0 1.414l4 4c0.092 0.092 0.202 0.166 0.324 0.217 0.245 0.101 0.521 0.101 0.766 0 0.118-0.049 0.228-0.121 0.324-0.217l4-4c0.391-0.391 0.391-1.024 0-1.414s-1.024-0.391-1.414 0l-2.293 2.293v-6.586c0-0.552-0.448-1-1-1s-1 0.448-1 1zM21.455 18.908c1.355-0.953 2.196-2.367 2.46-3.878s-0.050-3.126-1.003-4.481c-0.825-1.174-1.998-1.963-3.287-2.324-0.526-0.147-1.072-0.223-1.621-0.225h-0.523c-0.722-2.058-2.137-3.71-3.907-4.758-1.981-1.172-4.412-1.589-6.819-0.972s-4.338 2.155-5.51 4.136-1.589 4.412-0.972 6.819c0.371 1.446 1.075 2.725 1.983 3.734 0.37 0.41 1.002 0.444 1.412 0.074s0.444-1.002 0.074-1.412c-0.692-0.769-1.242-1.76-1.533-2.893-0.481-1.873-0.157-3.761 0.756-5.304s2.412-2.736 4.285-3.216 3.761-0.157 5.304 0.756 2.736 2.412 3.216 4.285c0.116 0.435 0.506 0.751 0.97 0.751h1.256c0.37 0.001 0.737 0.052 1.090 0.151 0.861 0.241 1.639 0.765 2.19 1.548 0.636 0.904 0.845 1.978 0.669 2.988s-0.736 1.95-1.64 2.585c-0.452 0.318-0.56 0.941-0.243 1.393s0.941 0.56 1.393 0.243z"></path>
</symbol>
<symbol id="icon-edit" viewBox="0 0 24 24">
<path d="M11 3h-7c-0.828 0-1.58 0.337-2.121 0.879s-0.879 1.293-0.879 2.121v14c0 0.828 0.337 1.58 0.879 2.121s1.293 0.879 2.121 0.879h14c0.828 0 1.58-0.337 2.121-0.879s0.879-1.293 0.879-2.121v-7c0-0.552-0.448-1-1-1s-1 0.448-1 1v7c0 0.276-0.111 0.525-0.293 0.707s-0.431 0.293-0.707 0.293h-14c-0.276 0-0.525-0.111-0.707-0.293s-0.293-0.431-0.293-0.707v-14c0-0.276 0.111-0.525 0.293-0.707s0.431-0.293 0.707-0.293h7c0.552 0 1-0.448 1-1s-0.448-1-1-1zM17.793 1.793l-9.5 9.5c-0.122 0.121-0.217 0.28-0.263 0.465l-1 4c-0.039 0.15-0.042 0.318 0 0.485 0.134 0.536 0.677 0.862 1.213 0.728l4-1c0.167-0.041 0.33-0.129 0.465-0.263l9.5-9.5c0.609-0.609 0.914-1.41 0.914-2.207s-0.305-1.598-0.914-2.207-1.411-0.915-2.208-0.915-1.598 0.305-2.207 0.914zM19.207 3.207c0.219-0.219 0.504-0.328 0.793-0.328s0.574 0.109 0.793 0.328 0.328 0.504 0.328 0.793-0.109 0.574-0.328 0.793l-9.304 9.304-2.114 0.529 0.529-2.114z"></path>
</symbol>
<symbol id="icon-edit-2" viewBox="0 0 24 24">
<path d="M16.293 2.293l-13.5 13.5c-0.117 0.116-0.21 0.268-0.258 0.444l-1.5 5.5c-0.046 0.163-0.049 0.346 0 0.526 0.145 0.533 0.695 0.847 1.228 0.702l5.5-1.5c0.159-0.042 0.315-0.129 0.444-0.258l13.5-13.5c0.747-0.747 1.121-1.729 1.121-2.707s-0.374-1.96-1.121-2.707-1.729-1.121-2.707-1.121-1.96 0.374-2.707 1.121zM17.707 3.707c0.357-0.357 0.824-0.535 1.293-0.535s0.936 0.178 1.293 0.536 0.535 0.823 0.535 1.292-0.178 0.936-0.535 1.293l-13.312 13.312-3.556 0.97 0.97-3.555z"></path>
</symbol>
<symbol id="icon-eye" viewBox="0 0 24 24">
<path d="M0.106 11.553c-0.136 0.274-0.146 0.603 0 0.894 0 0 0.396 0.789 1.12 1.843 0.451 0.656 1.038 1.432 1.757 2.218 0.894 0.979 2.004 1.987 3.319 2.8 1.595 0.986 3.506 1.692 5.698 1.692s4.103-0.706 5.698-1.692c1.315-0.813 2.425-1.821 3.319-2.8 0.718-0.786 1.306-1.562 1.757-2.218 0.724-1.054 1.12-1.843 1.12-1.843 0.136-0.274 0.146-0.603 0-0.894 0 0-0.396-0.789-1.12-1.843-0.451-0.656-1.038-1.432-1.757-2.218-0.894-0.979-2.004-1.987-3.319-2.8-1.595-0.986-3.506-1.692-5.698-1.692s-4.103 0.706-5.698 1.692c-1.315 0.813-2.425 1.821-3.319 2.8-0.719 0.786-1.306 1.561-1.757 2.218-0.724 1.054-1.12 1.843-1.12 1.843zM2.14 12c0.163-0.281 0.407-0.681 0.734-1.158 0.41-0.596 0.94-1.296 1.585-2.001 0.805-0.881 1.775-1.756 2.894-2.448 1.35-0.834 2.901-1.393 4.647-1.393s3.297 0.559 4.646 1.393c1.119 0.692 2.089 1.567 2.894 2.448 0.644 0.705 1.175 1.405 1.585 2.001 0.328 0.477 0.572 0.876 0.734 1.158-0.163 0.281-0.407 0.681-0.734 1.158-0.41 0.596-0.94 1.296-1.585 2.001-0.805 0.881-1.775 1.756-2.894 2.448-1.349 0.834-2.9 1.393-4.646 1.393s-3.297-0.559-4.646-1.393c-1.119-0.692-2.089-1.567-2.894-2.448-0.644-0.705-1.175-1.405-1.585-2.001-0.328-0.477-0.572-0.877-0.735-1.158zM16 12c0-1.104-0.449-2.106-1.172-2.828s-1.724-1.172-2.828-1.172-2.106 0.449-2.828 1.172-1.172 1.724-1.172 2.828 0.449 2.106 1.172 2.828 1.724 1.172 2.828 1.172 2.106-0.449 2.828-1.172 1.172-1.724 1.172-2.828zM14 12c0 0.553-0.223 1.051-0.586 1.414s-0.861 0.586-1.414 0.586-1.051-0.223-1.414-0.586-0.586-0.861-0.586-1.414 0.223-1.051 0.586-1.414 0.861-0.586 1.414-0.586 1.051 0.223 1.414 0.586 0.586 0.861 0.586 1.414z"></path>
</symbol>
<symbol id="icon-fast-forward" viewBox="0 0 24 24">
<path d="M14 16.955v-9.91l6.371 4.955zM3 16.955v-9.91l6.371 4.955zM2.614 19.789l9-7c0.251-0.195 0.383-0.486 0.386-0.78v6.991c0 0.552 0.448 1 1 1 0.232 0 0.446-0.079 0.614-0.211l9-7c0.436-0.339 0.514-0.967 0.175-1.403-0.054-0.069-0.115-0.129-0.175-0.175l-9-7c-0.436-0.339-1.064-0.261-1.403 0.175-0.143 0.184-0.212 0.401-0.211 0.614v6.99c-0.002-0.211-0.071-0.424-0.211-0.604-0.054-0.069-0.115-0.129-0.175-0.175l-9-7c-0.436-0.339-1.064-0.261-1.403 0.175-0.143 0.184-0.212 0.401-0.211 0.614v14c0 0.552 0.448 1 1 1 0.232 0 0.446-0.079 0.614-0.211z"></path>
</symbol>
<symbol id="icon-grid" viewBox="0 0 24 24">
<path d="M3 2c-0.552 0-1 0.448-1 1v7c0 0.552 0.448 1 1 1h7c0.552 0 1-0.448 1-1v-7c0-0.552-0.448-1-1-1zM4 4h5v5h-5zM14 2c-0.552 0-1 0.448-1 1v7c0 0.552 0.448 1 1 1h7c0.552 0 1-0.448 1-1v-7c0-0.552-0.448-1-1-1zM15 4h5v5h-5zM14 13c-0.552 0-1 0.448-1 1v7c0 0.552 0.448 1 1 1h7c0.552 0 1-0.448 1-1v-7c0-0.552-0.448-1-1-1zM15 15h5v5h-5zM3 13c-0.552 0-1 0.448-1 1v7c0 0.552 0.448 1 1 1h7c0.552 0 1-0.448 1-1v-7c0-0.552-0.448-1-1-1zM4 15h5v5h-5z"></path>
</symbol>
<symbol id="icon-heart" viewBox="0 0 24 24">
<path d="M20.133 5.317c0.88 0.881 1.319 2.031 1.319 3.184s-0.44 2.303-1.319 3.182l-8.133 8.133-8.133-8.133c-0.879-0.879-1.318-2.029-1.318-3.183s0.439-2.304 1.318-3.183 2.029-1.318 3.183-1.318 2.304 0.439 3.183 1.318l1.060 1.060c0.391 0.391 1.024 0.391 1.414 0l1.062-1.062c0.879-0.879 2.029-1.318 3.182-1.317s2.303 0.44 3.182 1.319zM21.547 3.903c-1.269-1.269-2.934-1.904-4.596-1.905s-3.327 0.634-4.597 1.903l-0.354 0.355-0.353-0.353c-1.269-1.269-2.935-1.904-4.597-1.904s-3.328 0.635-4.597 1.904-1.904 2.935-1.904 4.597 0.635 3.328 1.904 4.597l8.84 8.84c0.391 0.391 1.024 0.391 1.414 0l8.84-8.84c1.269-1.269 1.904-2.934 1.905-4.596s-0.634-3.327-1.905-4.598z"></path>
</symbol>
<symbol id="icon-home" viewBox="0 0 24 24">
<path d="M2.386 8.211c-0.236 0.184-0.386 0.469-0.386 0.789v11c0 0.828 0.337 1.58 0.879 2.121s1.293 0.879 2.121 0.879h14c0.828 0 1.58-0.337 2.121-0.879s0.879-1.293 0.879-2.121v-11c-0.001-0.3-0.134-0.593-0.386-0.789l-9-7c-0.358-0.275-0.861-0.285-1.228 0zM16 21v-9c0-0.552-0.448-1-1-1h-6c-0.552 0-1 0.448-1 1v9h-3c-0.276 0-0.525-0.111-0.707-0.293s-0.293-0.431-0.293-0.707v-10.511l8-6.222 8 6.222v10.511c0 0.276-0.111 0.525-0.293 0.707s-0.431 0.293-0.707 0.293zM10 21v-8h4v8z"></path>
</symbol>
<symbol id="icon-image" viewBox="0 0 24 24">
<path d="M5 2c-0.828 0-1.58 0.337-2.121 0.879s-0.879 1.293-0.879 2.121v14c0 0.828 0.337 1.58 0.879 2.121s1.293 0.879 2.121 0.879h14c0.828 0 1.58-0.337 2.121-0.879s0.879-1.293 0.879-2.121v-14c0-0.828-0.337-1.58-0.879-2.121s-1.293-0.879-2.121-0.879zM11 8.5c0-0.69-0.281-1.316-0.732-1.768s-1.078-0.732-1.768-0.732-1.316 0.281-1.768 0.732-0.732 1.078-0.732 1.768 0.281 1.316 0.732 1.768 1.078 0.732 1.768 0.732 1.316-0.281 1.768-0.732 0.732-1.078 0.732-1.768zM9 8.5c0 0.138-0.055 0.262-0.146 0.354s-0.216 0.146-0.354 0.146-0.262-0.055-0.354-0.146-0.146-0.216-0.146-0.354 0.055-0.262 0.146-0.354 0.216-0.146 0.354-0.146 0.262 0.055 0.354 0.146 0.146 0.216 0.146 0.354zM7.414 20l8.586-8.586 4 4v3.586c0 0.276-0.111 0.525-0.293 0.707s-0.431 0.293-0.707 0.293zM20 12.586l-3.293-3.293c-0.391-0.391-1.024-0.391-1.414 0l-10.644 10.644c-0.135-0.050-0.255-0.129-0.356-0.23-0.182-0.182-0.293-0.431-0.293-0.707v-14c0-0.276 0.111-0.525 0.293-0.707s0.431-0.293 0.707-0.293h14c0.276 0 0.525 0.111 0.707 0.293s0.293 0.431 0.293 0.707z"></path>
</symbol>
<symbol id="icon-loader" viewBox="0 0 24 24">
<path d="M11 2v4c0 0.552 0.448 1 1 1s1-0.448 1-1v-4c0-0.552-0.448-1-1-1s-1 0.448-1 1zM11 18v4c0 0.552 0.448 1 1 1s1-0.448 1-1v-4c0-0.552-0.448-1-1-1s-1 0.448-1 1zM4.223 5.637l2.83 2.83c0.391 0.391 1.024 0.391 1.414 0s0.391-1.024 0-1.414l-2.83-2.83c-0.391-0.391-1.024-0.391-1.414 0s-0.391 1.024 0 1.414zM15.533 16.947l2.83 2.83c0.391 0.391 1.024 0.391 1.414 0s0.391-1.024 0-1.414l-2.83-2.83c-0.391-0.391-1.024-0.391-1.414 0s-0.391 1.024 0 1.414zM2 13h4c0.552 0 1-0.448 1-1s-0.448-1-1-1h-4c-0.552 0-1 0.448-1 1s0.448 1 1 1zM18 13h4c0.552 0 1-0.448 1-1s-0.448-1-1-1h-4c-0.552 0-1 0.448-1 1s0.448 1 1 1zM5.637 19.777l2.83-2.83c0.391-0.391 0.391-1.024 0-1.414s-1.024-0.391-1.414 0l-2.83 2.83c-0.391 0.391-0.391 1.024 0 1.414s1.024 0.391 1.414 0zM16.947 8.467l2.83-2.83c0.391-0.391 0.391-1.024 0-1.414s-1.024-0.391-1.414 0l-2.83 2.83c-0.391 0.391-0.391 1.024 0 1.414s1.024 0.391 1.414 0z"></path>
</symbol>
<symbol id="icon-mail" viewBox="0 0 24 24">
<path d="M3 7.921l8.427 5.899c0.34 0.235 0.795 0.246 1.147 0l8.426-5.899v10.079c0 0.272-0.11 0.521-0.295 0.705s-0.433 0.295-0.705 0.295h-16c-0.272 0-0.521-0.11-0.705-0.295s-0.295-0.433-0.295-0.705zM1 5.983c0 0.010 0 0.020 0 0.030v11.987c0 0.828 0.34 1.579 0.88 2.12s1.292 0.88 2.12 0.88h16c0.828 0 1.579-0.34 2.12-0.88s0.88-1.292 0.88-2.12v-11.988c0-0.010 0-0.020 0-0.030-0.005-0.821-0.343-1.565-0.88-2.102-0.541-0.54-1.292-0.88-2.12-0.88h-16c-0.828 0-1.579 0.34-2.12 0.88-0.537 0.537-0.875 1.281-0.88 2.103zM20.894 5.554l-8.894 6.225-8.894-6.225c0.048-0.096 0.112-0.183 0.188-0.259 0.185-0.185 0.434-0.295 0.706-0.295h16c0.272 0 0.521 0.11 0.705 0.295 0.076 0.076 0.14 0.164 0.188 0.259z"></path>
</symbol>
<symbol id="icon-maximize" viewBox="0 0 24 24">
<path d="M8 2h-3c-0.828 0-1.58 0.337-2.121 0.879s-0.879 1.293-0.879 2.121v3c0 0.552 0.448 1 1 1s1-0.448 1-1v-3c0-0.276 0.111-0.525 0.293-0.707s0.431-0.293 0.707-0.293h3c0.552 0 1-0.448 1-1s-0.448-1-1-1zM22 8v-3c0-0.828-0.337-1.58-0.879-2.121s-1.293-0.879-2.121-0.879h-3c-0.552 0-1 0.448-1 1s0.448 1 1 1h3c0.276 0 0.525 0.111 0.707 0.293s0.293 0.431 0.293 0.707v3c0 0.552 0.448 1 1 1s1-0.448 1-1zM16 22h3c0.828 0 1.58-0.337 2.121-0.879s0.879-1.293 0.879-2.121v-3c0-0.552-0.448-1-1-1s-1 0.448-1 1v3c0 0.276-0.111 0.525-0.293 0.707s-0.431 0.293-0.707 0.293h-3c-0.552 0-1 0.448-1 1s0.448 1 1 1zM2 16v3c0 0.828 0.337 1.58 0.879 2.121s1.293 0.879 2.121 0.879h3c0.552 0 1-0.448 1-1s-0.448-1-1-1h-3c-0.276 0-0.525-0.111-0.707-0.293s-0.293-0.431-0.293-0.707v-3c0-0.552-0.448-1-1-1s-1 0.448-1 1z"></path>
</symbol>
<symbol id="icon-maximize-2" viewBox="0 0 24 24">
<path d="M18.586 4l-5.293 5.293c-0.391 0.391-0.391 1.024 0 1.414s1.024 0.391 1.414 0l5.293-5.293v3.586c0 0.552 0.448 1 1 1s1-0.448 1-1v-6c0-0.136-0.027-0.265-0.076-0.383s-0.121-0.228-0.216-0.323c-0.001-0.001-0.001-0.001-0.002-0.002-0.092-0.092-0.202-0.166-0.323-0.216-0.118-0.049-0.247-0.076-0.383-0.076h-6c-0.552 0-1 0.448-1 1s0.448 1 1 1zM5.414 20l5.293-5.293c0.391-0.391 0.391-1.024 0-1.414s-1.024-0.391-1.414 0l-5.293 5.293v-3.586c0-0.552-0.448-1-1-1s-1 0.448-1 1v6c0 0.552 0.448 1 1 1h6c0.552 0 1-0.448 1-1s-0.448-1-1-1z"></path>
</symbol>
<symbol id="icon-menu" viewBox="0 0 24 24">
<path d="M3 13h18c0.552 0 1-0.448 1-1s-0.448-1-1-1h-18c-0.552 0-1 0.448-1 1s0.448 1 1 1zM3 7h18c0.552 0 1-0.448 1-1s-0.448-1-1-1h-18c-0.552 0-1 0.448-1 1s0.448 1 1 1zM3 19h18c0.552 0 1-0.448 1-1s-0.448-1-1-1h-18c-0.552 0-1 0.448-1 1s0.448 1 1 1z"></path>
</symbol>
<symbol id="icon-moon" viewBox="0 0 24 24">
<path d="M21.996 12.882c0.022-0.233-0.038-0.476-0.188-0.681-0.325-0.446-0.951-0.544-1.397-0.219-0.95 0.693-2.060 1.086-3.188 1.162-1.368 0.092-2.765-0.283-3.95-1.158-1.333-0.985-2.139-2.415-2.367-3.935s0.124-3.124 1.109-4.456c0.142-0.191 0.216-0.435 0.191-0.691-0.053-0.55-0.542-0.952-1.092-0.898-2.258 0.22-4.314 1.18-5.895 2.651-1.736 1.615-2.902 3.847-3.137 6.386-0.254 2.749 0.631 5.343 2.266 7.311s4.022 3.313 6.772 3.567 5.343-0.631 7.311-2.266 3.313-4.022 3.567-6.772zM19.567 14.674c-0.49 1.363-1.335 2.543-2.416 3.441-1.576 1.309-3.648 2.016-5.848 1.813s-4.108-1.278-5.417-2.854-2.016-3.648-1.813-5.848c0.187-2.032 1.117-3.814 2.507-5.106 0.782-0.728 1.71-1.3 2.731-1.672-0.456 1.264-0.577 2.606-0.384 3.899 0.303 2.023 1.38 3.934 3.156 5.247 1.578 1.167 3.448 1.668 5.272 1.545 0.752-0.050 1.496-0.207 2.21-0.465z"></path>
</symbol>
<symbol id="icon-more-horizontal" viewBox="0 0 24 24">
<path d="M14 12c0-0.552-0.225-1.053-0.586-1.414s-0.862-0.586-1.414-0.586-1.053 0.225-1.414 0.586-0.586 0.862-0.586 1.414 0.225 1.053 0.586 1.414 0.862 0.586 1.414 0.586 1.053-0.225 1.414-0.586 0.586-0.862 0.586-1.414zM21 12c0-0.552-0.225-1.053-0.586-1.414s-0.862-0.586-1.414-0.586-1.053 0.225-1.414 0.586-0.586 0.862-0.586 1.414 0.225 1.053 0.586 1.414 0.862 0.586 1.414 0.586 1.053-0.225 1.414-0.586 0.586-0.862 0.586-1.414zM7 12c0-0.552-0.225-1.053-0.586-1.414s-0.862-0.586-1.414-0.586-1.053 0.225-1.414 0.586-0.586 0.862-0.586 1.414 0.225 1.053 0.586 1.414 0.862 0.586 1.414 0.586 1.053-0.225 1.414-0.586 0.586-0.862 0.586-1.414z"></path>
</symbol>
<symbol id="icon-more-vertical" viewBox="0 0 24 24">
<path d="M14 12c0-0.552-0.225-1.053-0.586-1.414s-0.862-0.586-1.414-0.586-1.053 0.225-1.414 0.586-0.586 0.862-0.586 1.414 0.225 1.053 0.586 1.414 0.862 0.586 1.414 0.586 1.053-0.225 1.414-0.586 0.586-0.862 0.586-1.414zM14 5c0-0.552-0.225-1.053-0.586-1.414s-0.862-0.586-1.414-0.586-1.053 0.225-1.414 0.586-0.586 0.862-0.586 1.414 0.225 1.053 0.586 1.414 0.862 0.586 1.414 0.586 1.053-0.225 1.414-0.586 0.586-0.862 0.586-1.414zM14 19c0-0.552-0.225-1.053-0.586-1.414s-0.862-0.586-1.414-0.586-1.053 0.225-1.414 0.586-0.586 0.862-0.586 1.414 0.225 1.053 0.586 1.414 0.862 0.586 1.414 0.586 1.053-0.225 1.414-0.586 0.586-0.862 0.586-1.414z"></path>
</symbol>
<symbol id="icon-music" viewBox="0 0 24 24">
<path d="M8 18c0 0.553-0.223 1.051-0.586 1.414s-0.861 0.586-1.414 0.586-1.051-0.223-1.414-0.586-0.586-0.861-0.586-1.414 0.223-1.051 0.586-1.414 0.861-0.586 1.414-0.586 1.051 0.223 1.414 0.586 0.586 0.861 0.586 1.414zM22 16v-13c0-0.050-0.004-0.107-0.014-0.164-0.091-0.545-0.606-0.913-1.151-0.822l-12 2c-0.476 0.081-0.835 0.492-0.835 0.986v9.535c-0.588-0.34-1.272-0.535-2-0.535-1.104 0-2.106 0.449-2.828 1.172s-1.172 1.724-1.172 2.828 0.449 2.106 1.172 2.828 1.724 1.172 2.828 1.172 2.106-0.449 2.828-1.172 1.172-1.724 1.172-2.828v-12.153l10-1.667v8.355c-0.588-0.34-1.272-0.535-2-0.535-1.104 0-2.106 0.449-2.828 1.172s-1.172 1.724-1.172 2.828 0.449 2.106 1.172 2.828 1.724 1.172 2.828 1.172 2.106-0.449 2.828-1.172 1.172-1.724 1.172-2.828zM20 16c0 0.553-0.223 1.051-0.586 1.414s-0.861 0.586-1.414 0.586-1.051-0.223-1.414-0.586-0.586-0.861-0.586-1.414 0.223-1.051 0.586-1.414 0.861-0.586 1.414-0.586 1.051 0.223 1.414 0.586 0.586 0.861 0.586 1.414z"></path>
</symbol>
<symbol id="icon-pause" viewBox="0 0 24 24">
<path d="M6 3c-0.552 0-1 0.448-1 1v16c0 0.552 0.448 1 1 1h4c0.552 0 1-0.448 1-1v-16c0-0.552-0.448-1-1-1zM7 5h2v14h-2zM14 3c-0.552 0-1 0.448-1 1v16c0 0.552 0.448 1 1 1h4c0.552 0 1-0.448 1-1v-16c0-0.552-0.448-1-1-1zM15 5h2v14h-2z"></path>
</symbol>
<symbol id="icon-pause-circle" viewBox="0 0 24 24">
<path d="M23 12c0-3.037-1.232-5.789-3.222-7.778s-4.741-3.222-7.778-3.222-5.789 1.232-7.778 3.222-3.222 4.741-3.222 7.778 1.232 5.789 3.222 7.778 4.741 3.222 7.778 3.222 5.789-1.232 7.778-3.222 3.222-4.741 3.222-7.778zM21 12c0 2.486-1.006 4.734-2.636 6.364s-3.878 2.636-6.364 2.636-4.734-1.006-6.364-2.636-2.636-3.878-2.636-6.364 1.006-4.734 2.636-6.364 3.878-2.636 6.364-2.636 4.734 1.006 6.364 2.636 2.636 3.878 2.636 6.364zM11 15v-6c0-0.552-0.448-1-1-1s-1 0.448-1 1v6c0 0.552 0.448 1 1 1s1-0.448 1-1zM15 15v-6c0-0.552-0.448-1-1-1s-1 0.448-1 1v6c0 0.552 0.448 1 1 1s1-0.448 1-1z"></path>
</symbol>
<symbol id="icon-play" viewBox="0 0 24 24">
<path d="M5.541 2.159c-0.153-0.1-0.34-0.159-0.541-0.159-0.552 0-1 0.448-1 1v18c-0.001 0.182 0.050 0.372 0.159 0.541 0.299 0.465 0.917 0.599 1.382 0.3l14-9c0.114-0.072 0.219-0.174 0.3-0.3 0.299-0.465 0.164-1.083-0.3-1.382zM6 4.832l11.151 7.168-11.151 7.168z"></path>
</symbol>
<symbol id="icon-plus" viewBox="0 0 24 24">
<path d="M5 13h6v6c0 0.552 0.448 1 1 1s1-0.448 1-1v-6h6c0.552 0 1-0.448 1-1s-0.448-1-1-1h-6v-6c0-0.552-0.448-1-1-1s-1 0.448-1 1v6h-6c-0.552 0-1 0.448-1 1s0.448 1 1 1z"></path>
</symbol>
<symbol id="icon-plus-circle" viewBox="0 0 24 24">
<path d="M23 12c0-3.037-1.232-5.789-3.222-7.778s-4.741-3.222-7.778-3.222-5.789 1.232-7.778 3.222-3.222 4.741-3.222 7.778 1.232 5.789 3.222 7.778 4.741 3.222 7.778 3.222 5.789-1.232 7.778-3.222 3.222-4.741 3.222-7.778zM21 12c0 2.486-1.006 4.734-2.636 6.364s-3.878 2.636-6.364 2.636-4.734-1.006-6.364-2.636-2.636-3.878-2.636-6.364 1.006-4.734 2.636-6.364 3.878-2.636 6.364-2.636 4.734 1.006 6.364 2.636 2.636 3.878 2.636 6.364zM8 13h3v3c0 0.552 0.448 1 1 1s1-0.448 1-1v-3h3c0.552 0 1-0.448 1-1s-0.448-1-1-1h-3v-3c0-0.552-0.448-1-1-1s-1 0.448-1 1v3h-3c-0.552 0-1 0.448-1 1s0.448 1 1 1z"></path>
</symbol>
<symbol id="icon-plus-square" viewBox="0 0 24 24">
<path d="M5 2c-0.828 0-1.58 0.337-2.121 0.879s-0.879 1.293-0.879 2.121v14c0 0.828 0.337 1.58 0.879 2.121s1.293 0.879 2.121 0.879h14c0.828 0 1.58-0.337 2.121-0.879s0.879-1.293 0.879-2.121v-14c0-0.828-0.337-1.58-0.879-2.121s-1.293-0.879-2.121-0.879zM5 4h14c0.276 0 0.525 0.111 0.707 0.293s0.293 0.431 0.293 0.707v14c0 0.276-0.111 0.525-0.293 0.707s-0.431 0.293-0.707 0.293h-14c-0.276 0-0.525-0.111-0.707-0.293s-0.293-0.431-0.293-0.707v-14c0-0.276 0.111-0.525 0.293-0.707s0.431-0.293 0.707-0.293zM8 13h3v3c0 0.552 0.448 1 1 1s1-0.448 1-1v-3h3c0.552 0 1-0.448 1-1s-0.448-1-1-1h-3v-3c0-0.552-0.448-1-1-1s-1 0.448-1 1v3h-3c-0.552 0-1 0.448-1 1s0.448 1 1 1z"></path>
</symbol>
<symbol id="icon-power" viewBox="0 0 24 24">
<path d="M17.653 7.347c1.562 1.563 2.343 3.608 2.342 5.657s-0.782 4.094-2.344 5.656c-1.562 1.561-3.606 2.342-5.654 2.342-2.052 0-4.098-0.782-5.659-2.344s-2.342-3.608-2.342-5.656 0.781-4.094 2.342-5.656c0.39-0.391 0.39-1.024 0-1.414s-1.024-0.39-1.414 0c-1.952 1.952-2.928 4.513-2.928 7.070s0.976 5.118 2.928 7.070c1.952 1.953 4.513 2.93 7.071 2.93s5.119-0.976 7.072-2.928c1.953-1.952 2.93-4.513 2.93-7.070-0.001-2.561-0.977-5.12-2.928-7.072-0.39-0.391-1.024-0.391-1.414 0s-0.391 1.024 0 1.414zM11 2v10c0 0.552 0.448 1 1 1s1-0.448 1-1v-10c0-0.552-0.448-1-1-1s-1 0.448-1 1z"></path>
</symbol>
<symbol id="icon-refresh-ccw" viewBox="0 0 24 24">
<path d="M21.433 8.666c-0.921-2.603-2.812-4.587-5.12-5.689s-5.040-1.323-7.643-0.402c-1.472 0.521-2.752 1.354-3.744 2.364l-2.926 2.75v-3.689c0-0.552-0.448-1-1-1s-1 0.448-1 1v5.998c0 0.015 0 0.030 0.001 0.044 0.005 0.115 0.029 0.225 0.069 0.326 0.040 0.102 0.098 0.198 0.173 0.285 0.012 0.013 0.024 0.027 0.036 0.039 0.091 0.095 0.201 0.172 0.324 0.225 0.119 0.051 0.249 0.080 0.386 0.082 0.004 0 0.007 0 0.011 0h6c0.552 0 1-0.448 1-1s-0.448-0.999-1-0.999h-3.476l2.83-2.659c0.777-0.792 1.797-1.46 2.983-1.88 2.083-0.737 4.265-0.561 6.114 0.322s3.359 2.468 4.096 4.551c0.184 0.521 0.756 0.793 1.276 0.609s0.793-0.756 0.609-1.276zM20.475 15l-2.8 2.631c-1.584 1.585-3.63 2.366-5.679 2.366s-4.095-0.78-5.657-2.342c-0.89-0.89-1.523-1.931-1.883-2.981-0.18-0.522-0.748-0.8-1.271-0.621s-0.8 0.748-0.621 1.271c0.46 1.339 1.257 2.642 2.361 3.745 1.953 1.952 4.514 2.928 7.072 2.927s5.118-0.978 7.048-2.909l2.955-2.775v3.688c0 0.552 0.448 1 1 1s1-0.448 1-1v-5.998c0-0.015 0-0.030-0.001-0.044-0.005-0.115-0.029-0.225-0.069-0.326-0.040-0.102-0.098-0.198-0.173-0.285-0.012-0.013-0.024-0.027-0.036-0.039-0.091-0.095-0.201-0.172-0.324-0.225-0.119-0.051-0.249-0.080-0.386-0.082-0.004 0-0.007 0-0.011 0h-6c-0.552 0-1 0.448-1 1s0.448 1 1 1z"></path>
</symbol>
<symbol id="icon-refresh-cw" viewBox="0 0 24 24">
<path d="M4.453 9.334c0.737-2.083 2.247-3.669 4.096-4.552s4.032-1.059 6.114-0.322c1.186 0.42 2.206 1.088 2.983 1.88l2.83 2.66h-3.476c-0.552 0-1 0.448-1 1s0.448 1 1 1h5.997c0.005 0 0.009 0 0.014 0 0.137-0.001 0.268-0.031 0.386-0.082 0.119-0.051 0.229-0.126 0.324-0.225 0.012-0.013 0.024-0.026 0.036-0.039 0.075-0.087 0.133-0.183 0.173-0.285s0.064-0.211 0.069-0.326c0.001-0.015 0.001-0.029 0.001-0.043v-6c0-0.552-0.448-1-1-1s-1 0.448-1 1v3.689l-2.926-2.749c-0.992-1.010-2.271-1.843-3.743-2.364-2.603-0.921-5.335-0.699-7.643 0.402s-4.199 3.086-5.12 5.689c-0.185 0.52 0.088 1.091 0.608 1.276s1.092-0.088 1.276-0.609zM2 16.312l2.955 2.777c1.929 1.931 4.49 2.908 7.048 2.909s5.119-0.975 7.072-2.927c1.104-1.104 1.901-2.407 2.361-3.745 0.18-0.522-0.098-1.091-0.621-1.271s-1.091 0.098-1.271 0.621c-0.361 1.050-0.993 2.091-1.883 2.981-1.563 1.562-3.609 2.342-5.657 2.342s-4.094-0.782-5.679-2.366l-2.8-2.633h3.475c0.552 0 1-0.448 1-1s-0.448-1-1-1h-5.997c-0.005 0-0.009 0-0.014 0-0.137 0.001-0.268 0.031-0.386 0.082-0.119 0.051-0.229 0.126-0.324 0.225-0.012 0.013-0.024 0.026-0.036 0.039-0.075 0.087-0.133 0.183-0.173 0.285s-0.064 0.211-0.069 0.326c-0.001 0.015-0.001 0.029-0.001 0.043v6c0 0.552 0.448 1 1 1s1-0.448 1-1z"></path>
</symbol>
<symbol id="icon-repeat" viewBox="0 0 24 24">
<path d="M4 11v-2c0-0.829 0.335-1.577 0.879-2.121s1.292-0.879 2.121-0.879h11.586l-2.293 2.293c-0.391 0.391-0.391 1.024 0 1.414s1.024 0.391 1.414 0l4-4c0.096-0.096 0.168-0.206 0.217-0.324s0.076-0.247 0.076-0.383c0-0.13-0.025-0.261-0.076-0.383-0.049-0.118-0.121-0.228-0.217-0.324l-4-4c-0.391-0.391-1.024-0.391-1.414 0s-0.391 1.024 0 1.414l2.293 2.293h-11.586c-1.38 0-2.632 0.561-3.536 1.464s-1.464 2.156-1.464 3.536v2c0 0.552 0.448 1 1 1s1-0.448 1-1zM20 13v2c0 0.829-0.335 1.577-0.879 2.121s-1.292 0.879-2.121 0.879h-11.586l2.293-2.293c0.391-0.391 0.391-1.024 0-1.414s-1.024-0.391-1.414 0l-4 4c-0.092 0.092-0.166 0.202-0.217 0.324s-0.076 0.253-0.076 0.383c0 0.256 0.098 0.512 0.293 0.707l4 4c0.391 0.391 1.024 0.391 1.414 0s0.391-1.024 0-1.414l-2.293-2.293h11.586c1.38 0 2.632-0.561 3.536-1.464s1.464-2.156 1.464-3.536v-2c0-0.552-0.448-1-1-1s-1 0.448-1 1z"></path>
</symbol>
<symbol id="icon-rewind" viewBox="0 0 24 24">
<path d="M10 16.955l-6.371-4.955 6.371-4.955zM21.386 19.789c0.168 0.132 0.382 0.211 0.614 0.211 0.552 0 1-0.448 1-1v-14c0.001-0.213-0.068-0.43-0.211-0.614-0.339-0.436-0.967-0.514-1.403-0.175l-9 7c-0.061 0.046-0.122 0.106-0.175 0.175-0.14 0.18-0.209 0.392-0.211 0.604v-6.99c0.001-0.213-0.068-0.43-0.211-0.614-0.339-0.436-0.967-0.514-1.403-0.175l-9 7c-0.061 0.046-0.122 0.106-0.175 0.175-0.339 0.436-0.261 1.064 0.175 1.403l9 7c0.168 0.132 0.382 0.211 0.614 0.211 0.552 0 1-0.448 1-1v-6.991c0.003 0.295 0.135 0.585 0.386 0.78zM21 16.955l-6.371-4.955 6.371-4.955z"></path>
</symbol>
<symbol id="icon-rotate-ccw" viewBox="0 0 24 24">
<path d="M2.567 15.332c0.918 2.604 2.805 4.591 5.112 5.696s5.038 1.33 7.643 0.413 4.591-2.805 5.696-5.112 1.33-5.038 0.413-7.643-2.805-4.591-5.112-5.696-5.038-1.33-7.643-0.413c-1.474 0.52-2.755 1.352-3.749 2.362l-2.927 2.75v-3.689c0-0.552-0.448-1-1-1s-1 0.448-1 1v5.998c0 0.015 0 0.030 0.001 0.044 0.005 0.115 0.029 0.225 0.069 0.326 0.040 0.102 0.098 0.198 0.173 0.285 0.012 0.013 0.024 0.027 0.036 0.039 0.091 0.095 0.201 0.172 0.324 0.225 0.119 0.051 0.249 0.080 0.386 0.082 0.004 0 0.007 0 0.011 0h6c0.552 0 1-0.448 1-1s-0.448-0.999-1-0.999h-3.476l2.829-2.659c0.779-0.792 1.8-1.459 2.987-1.877 2.084-0.734 4.266-0.555 6.114 0.33s3.356 2.473 4.090 4.557 0.555 4.266-0.33 6.114-2.473 3.356-4.557 4.090-4.266 0.555-6.114-0.33-3.356-2.473-4.090-4.557c-0.184-0.521-0.755-0.794-1.275-0.611s-0.794 0.755-0.611 1.275z"></path>
</symbol>
<symbol id="icon-rotate-cw" viewBox="0 0 24 24">
<path d="M19.547 14.667c-0.736 2.083-2.245 3.67-4.094 4.553s-4.031 1.061-6.114 0.325-3.67-2.245-4.553-4.094-1.061-4.031-0.325-6.114 2.245-3.67 4.094-4.553 4.031-1.061 6.114-0.325c1.188 0.42 2.209 1.088 2.987 1.882l2.824 2.659h-3.48c-0.552 0-1 0.448-1 1s0.448 1 1 1h5.997c0.004 0 0.009 0 0.013 0 0.137-0.001 0.267-0.030 0.386-0.082 0.119-0.051 0.229-0.126 0.324-0.225 0.012-0.012 0.023-0.025 0.034-0.038 0.076-0.087 0.134-0.184 0.175-0.287s0.065-0.213 0.069-0.328c0.002-0.014 0.002-0.028 0.002-0.042v-5.998c0-0.552-0.448-1-1-1s-1 0.448-1 1v3.685l-2.916-2.745c-0.993-1.012-2.274-1.846-3.748-2.366-2.604-0.921-5.336-0.698-7.644 0.405s-4.197 3.088-5.117 5.692-0.696 5.335 0.406 7.643 3.088 4.197 5.692 5.117 5.335 0.697 7.643-0.406 4.197-3.088 5.117-5.692c0.184-0.521-0.089-1.092-0.61-1.276s-1.092 0.089-1.276 0.61z"></path>
</symbol>
<symbol id="icon-search" viewBox="0 0 24 24">
<path d="M16.041 15.856c-0.034 0.026-0.067 0.055-0.099 0.087s-0.060 0.064-0.087 0.099c-1.258 1.213-2.969 1.958-4.855 1.958-1.933 0-3.682-0.782-4.95-2.050s-2.050-3.017-2.050-4.95 0.782-3.682 2.050-4.95 3.017-2.050 4.95-2.050 3.682 0.782 4.95 2.050 2.050 3.017 2.050 4.95c0 1.886-0.745 3.597-1.959 4.856zM21.707 20.293l-3.675-3.675c1.231-1.54 1.968-3.493 1.968-5.618 0-2.485-1.008-4.736-2.636-6.364s-3.879-2.636-6.364-2.636-4.736 1.008-6.364 2.636-2.636 3.879-2.636 6.364 1.008 4.736 2.636 6.364 3.879 2.636 6.364 2.636c2.125 0 4.078-0.737 5.618-1.968l3.675 3.675c0.391 0.391 1.024 0.391 1.414 0s0.391-1.024 0-1.414z"></path>
</symbol>
<symbol id="icon-settings" viewBox="0 0 24 24">
<path d="M16 12c0-1.104-0.449-2.106-1.172-2.828s-1.724-1.172-2.828-1.172-2.106 0.449-2.828 1.172-1.172 1.724-1.172 2.828 0.449 2.106 1.172 2.828 1.724 1.172 2.828 1.172 2.106-0.449 2.828-1.172 1.172-1.724 1.172-2.828zM14 12c0 0.553-0.223 1.051-0.586 1.414s-0.861 0.586-1.414 0.586-1.051-0.223-1.414-0.586-0.586-0.861-0.586-1.414 0.223-1.051 0.586-1.414 0.861-0.586 1.414-0.586 1.051 0.223 1.414 0.586 0.586 0.861 0.586 1.414zM20.315 15.404c0.046-0.105 0.112-0.191 0.192-0.257 0.112-0.092 0.251-0.146 0.403-0.147h0.090c0.828 0 1.58-0.337 2.121-0.879s0.879-1.293 0.879-2.121-0.337-1.58-0.879-2.121-1.293-0.879-2.121-0.879h-0.159c-0.11-0.001-0.215-0.028-0.308-0.076-0.127-0.066-0.23-0.172-0.292-0.312-0.003-0.029-0.004-0.059-0.004-0.089-0.024-0.055-0.040-0.111-0.049-0.168 0.020-0.334 0.077-0.454 0.168-0.547l0.062-0.062c0.585-0.586 0.878-1.356 0.877-2.122s-0.294-1.536-0.881-2.122c-0.586-0.585-1.356-0.878-2.122-0.877s-1.536 0.294-2.12 0.879l-0.046 0.046c-0.083 0.080-0.183 0.136-0.288 0.166-0.14 0.039-0.291 0.032-0.438-0.033-0.101-0.044-0.187-0.11-0.253-0.19-0.092-0.112-0.146-0.251-0.147-0.403v-0.090c0-0.828-0.337-1.58-0.879-2.121s-1.293-0.879-2.121-0.879-1.58 0.337-2.121 0.879-0.879 1.293-0.879 2.121v0.159c-0.001 0.11-0.028 0.215-0.076 0.308-0.066 0.127-0.172 0.23-0.312 0.292-0.029 0.003-0.059 0.004-0.089 0.004-0.055 0.024-0.111 0.040-0.168 0.049-0.335-0.021-0.455-0.078-0.548-0.169l-0.062-0.062c-0.586-0.585-1.355-0.878-2.122-0.878s-1.535 0.294-2.122 0.882c-0.585 0.586-0.878 1.355-0.878 2.122s0.294 1.536 0.879 2.12l0.048 0.047c0.080 0.083 0.136 0.183 0.166 0.288 0.039 0.14 0.032 0.291-0.031 0.434-0.006 0.016-0.013 0.034-0.021 0.052-0.041 0.109-0.108 0.203-0.191 0.275-0.11 0.095-0.25 0.153-0.383 0.156h-0.090c-0.828 0-1.58 0.337-2.121 0.879s-0.879 1.294-0.879 2.122 0.337 1.58 0.879 2.121 1.293 0.879 2.121 0.879h0.159c0.11 0.001 0.215 0.028 0.308 0.076 0.128 0.067 0.233 0.174 0.296 0.321 0.024 0.055 0.040 0.111 0.049 0.168-0.020 0.334-0.077 0.454-0.168 0.547l-0.062 0.062c-0.585 0.586-0.878 1.356-0.877 2.122s0.294 1.536 0.881 2.122c0.586 0.585 1.356 0.878 2.122 0.877s1.536-0.294 2.12-0.879l0.047-0.048c0.083-0.080 0.183-0.136 0.288-0.166 0.14-0.039 0.291-0.032 0.434 0.031 0.016 0.006 0.034 0.013 0.052 0.021 0.109 0.041 0.203 0.108 0.275 0.191 0.095 0.11 0.153 0.25 0.156 0.383v0.092c0 0.828 0.337 1.58 0.879 2.121s1.293 0.879 2.121 0.879 1.58-0.337 2.121-0.879 0.879-1.293 0.879-2.121v-0.159c0.001-0.11 0.028-0.215 0.076-0.308 0.067-0.128 0.174-0.233 0.321-0.296 0.055-0.024 0.111-0.040 0.168-0.049 0.334 0.020 0.454 0.077 0.547 0.168l0.062 0.062c0.586 0.585 1.356 0.878 2.122 0.877s1.536-0.294 2.122-0.881c0.585-0.586 0.878-1.356 0.877-2.122s-0.294-1.536-0.879-2.12l-0.048-0.047c-0.080-0.083-0.136-0.183-0.166-0.288-0.039-0.14-0.032-0.291 0.031-0.434zM18.396 9.302c-0.012-0.201-0.038-0.297-0.076-0.382v0.080c0 0.043 0.003 0.084 0.008 0.125 0.021 0.060 0.043 0.119 0.068 0.177 0.004 0.090 0.005 0.091 0.005 0.092 0.249 0.581 0.684 1.030 1.208 1.303 0.371 0.193 0.785 0.298 1.211 0.303h0.18c0.276 0 0.525 0.111 0.707 0.293s0.293 0.431 0.293 0.707-0.111 0.525-0.293 0.707-0.431 0.293-0.707 0.293h-0.090c-0.637 0.003-1.22 0.228-1.675 0.603-0.323 0.266-0.581 0.607-0.75 0.993-0.257 0.582-0.288 1.21-0.127 1.782 0.119 0.423 0.341 0.814 0.652 1.136l0.072 0.073c0.196 0.196 0.294 0.45 0.294 0.707s-0.097 0.512-0.292 0.707c-0.197 0.197-0.451 0.295-0.709 0.295s-0.512-0.097-0.707-0.292l-0.061-0.061c-0.463-0.453-1.040-0.702-1.632-0.752-0.437-0.037-0.882 0.034-1.293 0.212-0.578 0.248-1.027 0.683-1.3 1.206-0.193 0.371-0.298 0.785-0.303 1.211v0.181c0 0.276-0.111 0.525-0.293 0.707s-0.43 0.292-0.706 0.292-0.525-0.111-0.707-0.293-0.293-0.431-0.293-0.707v-0.090c-0.015-0.66-0.255-1.242-0.644-1.692-0.284-0.328-0.646-0.585-1.058-0.744-0.575-0.247-1.193-0.274-1.756-0.116-0.423 0.119-0.814 0.341-1.136 0.652l-0.073 0.072c-0.196 0.196-0.45 0.294-0.707 0.294s-0.512-0.097-0.707-0.292c-0.197-0.197-0.295-0.451-0.295-0.709s0.097-0.512 0.292-0.707l0.061-0.061c0.453-0.463 0.702-1.040 0.752-1.632 0.037-0.437-0.034-0.882-0.212-1.293-0.248-0.578-0.683-1.027-1.206-1.3-0.371-0.193-0.785-0.298-1.211-0.303l-0.18 0.001c-0.276 0-0.525-0.111-0.707-0.293s-0.293-0.431-0.293-0.707 0.111-0.525 0.293-0.707 0.431-0.293 0.707-0.293h0.090c0.66-0.015 1.242-0.255 1.692-0.644 0.328-0.284 0.585-0.646 0.744-1.058 0.247-0.575 0.274-1.193 0.116-1.756-0.119-0.423-0.341-0.814-0.652-1.136l-0.073-0.073c-0.196-0.196-0.294-0.45-0.294-0.707s0.097-0.512 0.292-0.707c0.197-0.197 0.451-0.295 0.709-0.295s0.512 0.097 0.707 0.292l0.061 0.061c0.463 0.453 1.040 0.702 1.632 0.752 0.37 0.032 0.745-0.014 1.101-0.137 0.096-0.012 0.186-0.036 0.266-0.072-0.031 0.001-0.061 0.003-0.089 0.004-0.201 0.012-0.297 0.038-0.382 0.076h0.080c0.043 0 0.084-0.003 0.125-0.008 0.060-0.021 0.119-0.043 0.177-0.068 0.090-0.004 0.091-0.005 0.092-0.005 0.581-0.249 1.030-0.684 1.303-1.208 0.193-0.37 0.298-0.785 0.303-1.21v-0.181c0-0.276 0.111-0.525 0.293-0.707s0.431-0.293 0.707-0.293 0.525 0.111 0.707 0.293 0.293 0.431 0.293 0.707v0.090c0.003 0.637 0.228 1.22 0.603 1.675 0.266 0.323 0.607 0.581 0.996 0.751 0.578 0.255 1.206 0.286 1.778 0.125 0.423-0.119 0.814-0.341 1.136-0.652l0.073-0.072c0.196-0.196 0.45-0.294 0.707-0.294s0.512 0.097 0.707 0.292c0.197 0.197 0.295 0.451 0.295 0.709s-0.097 0.512-0.292 0.707l-0.061 0.061c-0.453 0.463-0.702 1.040-0.752 1.632-0.032 0.37 0.014 0.745 0.137 1.101 0.012 0.095 0.037 0.185 0.072 0.266-0.001-0.032-0.002-0.062-0.004-0.089z"></path>
</symbol>
<symbol id="icon-share-2" viewBox="0 0 24 24">
<path d="M16.214 18.098c0.025-0.033 0.048-0.067 0.070-0.104 0.020-0.035 0.038-0.071 0.054-0.107 0.073-0.108 0.156-0.209 0.248-0.301 0.363-0.363 0.861-0.586 1.414-0.586s1.051 0.223 1.414 0.586 0.586 0.861 0.586 1.414-0.223 1.051-0.586 1.414-0.861 0.586-1.414 0.586-1.051-0.223-1.414-0.586-0.586-0.861-0.586-1.414c0-0.325 0.077-0.631 0.214-0.902zM16.301 6.056c-0.009-0.017-0.018-0.034-0.028-0.051s-0.020-0.034-0.031-0.050c-0.154-0.283-0.242-0.608-0.242-0.955 0-0.553 0.223-1.051 0.586-1.414s0.861-0.586 1.414-0.586 1.051 0.223 1.414 0.586 0.586 0.861 0.586 1.414-0.223 1.051-0.586 1.414-0.861 0.586-1.414 0.586-1.051-0.223-1.414-0.586c-0.108-0.108-0.204-0.228-0.285-0.358zM7.699 10.944c0.009 0.017 0.018 0.034 0.028 0.051s0.020 0.034 0.031 0.050c0.154 0.283 0.242 0.608 0.242 0.955s-0.088 0.672-0.243 0.956c-0.011 0.016-0.021 0.033-0.031 0.050s-0.019 0.033-0.027 0.050c-0.081 0.13-0.177 0.25-0.285 0.358-0.363 0.363-0.861 0.586-1.414 0.586s-1.051-0.223-1.414-0.586-0.586-0.861-0.586-1.414 0.223-1.051 0.586-1.414 0.861-0.586 1.414-0.586 1.051 0.223 1.414 0.586c0.108 0.108 0.204 0.228 0.285 0.358zM14.15 6.088l-5.308 3.097c-0.004-0.005-0.009-0.009-0.014-0.014-0.722-0.722-1.724-1.171-2.828-1.171s-2.106 0.449-2.828 1.172-1.172 1.724-1.172 2.828 0.449 2.106 1.172 2.828 1.724 1.172 2.828 1.172 2.106-0.449 2.828-1.172c0.005-0.005 0.009-0.009 0.014-0.014l5.309 3.094c-0.098 0.347-0.151 0.714-0.151 1.092 0 1.104 0.449 2.106 1.172 2.828s1.724 1.172 2.828 1.172 2.106-0.449 2.828-1.172 1.172-1.724 1.172-2.828-0.449-2.106-1.172-2.828-1.724-1.172-2.828-1.172-2.106 0.449-2.828 1.172c-0.003 0.003-0.007 0.007-0.010 0.010l-5.312-3.095c0.098-0.346 0.15-0.71 0.15-1.087s-0.052-0.742-0.15-1.088l5.308-3.098c0.004 0.005 0.009 0.009 0.014 0.014 0.722 0.723 1.724 1.172 2.828 1.172s2.106-0.449 2.828-1.172 1.172-1.724 1.172-2.828-0.449-2.106-1.172-2.828-1.724-1.172-2.828-1.172-2.106 0.449-2.828 1.172-1.172 1.724-1.172 2.828c0 0.377 0.052 0.742 0.15 1.088z"></path>
</symbol>
<symbol id="icon-skip-back" viewBox="0 0 24 24">
<path d="M18.375 20.781c0.17 0.136 0.388 0.219 0.625 0.219 0.552 0 1-0.448 1-1v-16c0.001-0.218-0.071-0.439-0.219-0.625-0.345-0.431-0.974-0.501-1.406-0.156l-10 8c-0.053 0.042-0.108 0.095-0.156 0.156-0.345 0.431-0.275 1.061 0.156 1.406zM18 17.919l-7.399-5.919 7.399-5.919zM6 19v-14c0-0.552-0.448-1-1-1s-1 0.448-1 1v14c0 0.552 0.448 1 1 1s1-0.448 1-1z"></path>
</symbol>
<symbol id="icon-skip-forward" viewBox="0 0 24 24">
<path d="M5.625 3.219c-0.17-0.136-0.388-0.219-0.625-0.219-0.552 0-1 0.448-1 1v16c-0.001 0.218 0.071 0.439 0.219 0.625 0.345 0.431 0.974 0.501 1.406 0.156l10-8c0.053-0.042 0.108-0.095 0.156-0.156 0.345-0.431 0.275-1.061-0.156-1.406zM6 6.081l7.399 5.919-7.399 5.919zM18 5v14c0 0.552 0.448 1 1 1s1-0.448 1-1v-14c0-0.552-0.448-1-1-1s-1 0.448-1 1z"></path>
</symbol>
<symbol id="icon-slash" viewBox="0 0 24 24">
<path d="M23 12c0-3.037-1.232-5.789-3.222-7.778s-4.741-3.222-7.778-3.222-5.789 1.232-7.778 3.222-3.222 4.741-3.222 7.778 1.232 5.789 3.222 7.778 4.741 3.222 7.778 3.222 5.789-1.232 7.778-3.222 3.222-4.741 3.222-7.778zM19.032 17.618l-12.65-12.65c1.54-1.232 3.493-1.968 5.618-1.968 2.486 0 4.734 1.006 6.364 2.636s2.636 3.878 2.636 6.364c0 2.125-0.736 4.078-1.968 5.618zM4.968 6.382l12.65 12.65c-1.54 1.232-3.493 1.968-5.618 1.968-2.486 0-4.734-1.006-6.364-2.636s-2.636-3.878-2.636-6.364c0-2.125 0.736-4.078 1.968-5.618z"></path>
</symbol>
<symbol id="icon-sliders" viewBox="0 0 24 24">
<path d="M5 10v-7c0-0.552-0.448-1-1-1s-1 0.448-1 1v7c0 0.552 0.448 1 1 1s1-0.448 1-1zM13 21v-9c0-0.552-0.448-1-1-1s-1 0.448-1 1v9c0 0.552 0.448 1 1 1s1-0.448 1-1zM21 12v-9c0-0.552-0.448-1-1-1s-1 0.448-1 1v9c0 0.552 0.448 1 1 1s1-0.448 1-1zM1 15h2v6c0 0.552 0.448 1 1 1s1-0.448 1-1v-6h2c0.552 0 1-0.448 1-1s-0.448-1-1-1h-6c-0.552 0-1 0.448-1 1s0.448 1 1 1zM9 9h6c0.552 0 1-0.448 1-1s-0.448-1-1-1h-2v-4c0-0.552-0.448-1-1-1s-1 0.448-1 1v4h-2c-0.552 0-1 0.448-1 1s0.448 1 1 1zM17 17h2v4c0 0.552 0.448 1 1 1s1-0.448 1-1v-4h2c0.552 0 1-0.448 1-1s-0.448-1-1-1h-6c-0.552 0-1 0.448-1 1s0.448 1 1 1z"></path>
</symbol>
<symbol id="icon-star" viewBox="0 0 24 24">
<path d="M12.897 1.557c-0.092-0.189-0.248-0.352-0.454-0.454-0.495-0.244-1.095-0.041-1.339 0.454l-2.858 5.789-6.391 0.935c-0.208 0.029-0.411 0.127-0.571 0.291-0.386 0.396-0.377 1.029 0.018 1.414l4.623 4.503-1.091 6.362c-0.036 0.207-0.006 0.431 0.101 0.634 0.257 0.489 0.862 0.677 1.351 0.42l5.714-3.005 5.715 3.005c0.186 0.099 0.408 0.139 0.634 0.101 0.544-0.093 0.91-0.61 0.817-1.155l-1.091-6.362 4.623-4.503c0.151-0.146 0.259-0.344 0.292-0.572 0.080-0.546-0.298-1.054-0.845-1.134l-6.39-0.934zM12 4.259l2.193 4.444c0.151 0.305 0.436 0.499 0.752 0.547l4.906 0.717-3.549 3.457c-0.244 0.238-0.341 0.569-0.288 0.885l0.837 4.883-4.386-2.307c-0.301-0.158-0.647-0.148-0.931 0l-4.386 2.307 0.837-4.883c0.058-0.336-0.059-0.661-0.288-0.885l-3.549-3.457 4.907-0.718c0.336-0.049 0.609-0.26 0.752-0.546z"></path>
</symbol>
<symbol id="icon-sun" viewBox="0 0 24 24">
<path d="M18 12c0-1.657-0.673-3.158-1.757-4.243s-2.586-1.757-4.243-1.757-3.158 0.673-4.243 1.757-1.757 2.586-1.757 4.243 0.673 3.158 1.757 4.243 2.586 1.757 4.243 1.757 3.158-0.673 4.243-1.757 1.757-2.586 1.757-4.243zM16 12c0 1.105-0.447 2.103-1.172 2.828s-1.723 1.172-2.828 1.172-2.103-0.447-2.828-1.172-1.172-1.723-1.172-2.828 0.447-2.103 1.172-2.828 1.723-1.172 2.828-1.172 2.103 0.447 2.828 1.172 1.172 1.723 1.172 2.828zM11 1v2c0 0.552 0.448 1 1 1s1-0.448 1-1v-2c0-0.552-0.448-1-1-1s-1 0.448-1 1zM11 21v2c0 0.552 0.448 1 1 1s1-0.448 1-1v-2c0-0.552-0.448-1-1-1s-1 0.448-1 1zM3.513 4.927l1.42 1.42c0.391 0.391 1.024 0.391 1.414 0s0.391-1.024 0-1.414l-1.42-1.42c-0.391-0.391-1.024-0.391-1.414 0s-0.391 1.024 0 1.414zM17.653 19.067l1.42 1.42c0.391 0.391 1.024 0.391 1.414 0s0.391-1.024 0-1.414l-1.42-1.42c-0.391-0.391-1.024-0.391-1.414 0s-0.391 1.024 0 1.414zM1 13h2c0.552 0 1-0.448 1-1s-0.448-1-1-1h-2c-0.552 0-1 0.448-1 1s0.448 1 1 1zM21 13h2c0.552 0 1-0.448 1-1s-0.448-1-1-1h-2c-0.552 0-1 0.448-1 1s0.448 1 1 1zM4.927 20.487l1.42-1.42c0.391-0.391 0.391-1.024 0-1.414s-1.024-0.391-1.414 0l-1.42 1.42c-0.391 0.391-0.391 1.024 0 1.414s1.024 0.391 1.414 0zM19.067 6.347l1.42-1.42c0.391-0.391 0.391-1.024 0-1.414s-1.024-0.391-1.414 0l-1.42 1.42c-0.391 0.391-0.391 1.024 0 1.414s1.024 0.391 1.414 0z"></path>
</symbol>
<symbol id="icon-thumbs-up" viewBox="0 0 24 24">
<path d="M13 9c0 0.552 0.448 1 1 1h5.679c0.065 0.002 0.153 0.011 0.153 0.011 0.273 0.041 0.502 0.188 0.655 0.396s0.225 0.47 0.184 0.742l-1.38 8.998c-0.037 0.239-0.156 0.448-0.325 0.6-0.18 0.161-0.415 0.256-0.686 0.253h-10.28v-9.788l3.608-8.118c0.307 0.098 0.582 0.268 0.806 0.492 0.363 0.363 0.586 0.861 0.586 1.414zM15 8v-3c0-1.104-0.449-2.106-1.172-2.828s-1.724-1.172-2.828-1.172c-0.405 0-0.754 0.241-0.914 0.594l-4 9c-0.060 0.134-0.087 0.275-0.086 0.406v11c0 0.552 0.448 1 1 1h11.28c0.767 0.009 1.482-0.281 2.021-0.763 0.505-0.452 0.857-1.076 0.967-1.783l1.38-9.002c0.125-0.82-0.096-1.614-0.55-2.231s-1.147-1.063-1.965-1.187c-0.165-0.025-0.333-0.037-0.492-0.034zM7 21h-3c-0.276 0-0.525-0.111-0.707-0.293s-0.293-0.431-0.293-0.707v-7c0-0.276 0.111-0.525 0.293-0.707s0.431-0.293 0.707-0.293h3c0.552 0 1-0.448 1-1s-0.448-1-1-1h-3c-0.828 0-1.58 0.337-2.121 0.879s-0.879 1.293-0.879 2.121v7c0 0.828 0.337 1.58 0.879 2.121s1.293 0.879 2.121 0.879h3c0.552 0 1-0.448 1-1s-0.448-1-1-1z"></path>
</symbol>
<symbol id="icon-trash" viewBox="0 0 24 24">
<path d="M18 7v13c0 0.276-0.111 0.525-0.293 0.707s-0.431 0.293-0.707 0.293h-10c-0.276 0-0.525-0.111-0.707-0.293s-0.293-0.431-0.293-0.707v-13zM17 5v-1c0-0.828-0.337-1.58-0.879-2.121s-1.293-0.879-2.121-0.879h-4c-0.828 0-1.58 0.337-2.121 0.879s-0.879 1.293-0.879 2.121v1h-4c-0.552 0-1 0.448-1 1s0.448 1 1 1h1v13c0 0.828 0.337 1.58 0.879 2.121s1.293 0.879 2.121 0.879h10c0.828 0 1.58-0.337 2.121-0.879s0.879-1.293 0.879-2.121v-13h1c0.552 0 1-0.448 1-1s-0.448-1-1-1zM9 5v-1c0-0.276 0.111-0.525 0.293-0.707s0.431-0.293 0.707-0.293h4c0.276 0 0.525 0.111 0.707 0.293s0.293 0.431 0.293 0.707v1z"></path>
</symbol>
<symbol id="icon-trash-2" viewBox="0 0 24 24">
<path d="M18 7v13c0 0.276-0.111 0.525-0.293 0.707s-0.431 0.293-0.707 0.293h-10c-0.276 0-0.525-0.111-0.707-0.293s-0.293-0.431-0.293-0.707v-13zM17 5v-1c0-0.828-0.337-1.58-0.879-2.121s-1.293-0.879-2.121-0.879h-4c-0.828 0-1.58 0.337-2.121 0.879s-0.879 1.293-0.879 2.121v1h-4c-0.552 0-1 0.448-1 1s0.448 1 1 1h1v13c0 0.828 0.337 1.58 0.879 2.121s1.293 0.879 2.121 0.879h10c0.828 0 1.58-0.337 2.121-0.879s0.879-1.293 0.879-2.121v-13h1c0.552 0 1-0.448 1-1s-0.448-1-1-1zM9 5v-1c0-0.276 0.111-0.525 0.293-0.707s0.431-0.293 0.707-0.293h4c0.276 0 0.525 0.111 0.707 0.293s0.293 0.431 0.293 0.707v1zM9 11v6c0 0.552 0.448 1 1 1s1-0.448 1-1v-6c0-0.552-0.448-1-1-1s-1 0.448-1 1zM13 11v6c0 0.552 0.448 1 1 1s1-0.448 1-1v-6c0-0.552-0.448-1-1-1s-1 0.448-1 1z"></path>
</symbol>
<symbol id="icon-video" viewBox="0 0 24 24">
<path d="M22 8.943v6.114l-4.28-3.057zM3 4c-0.828 0-1.58 0.337-2.121 0.879s-0.879 1.293-0.879 2.121v10c0 0.828 0.337 1.58 0.879 2.121s1.293 0.879 2.121 0.879h11c0.828 0 1.58-0.337 2.121-0.879s0.879-1.293 0.879-2.121v-3.057l5.419 3.871c0.449 0.321 1.074 0.217 1.395-0.232 0.126-0.178 0.187-0.383 0.186-0.582v-10c0-0.552-0.448-1-1-1-0.218 0-0.42 0.070-0.581 0.186l-5.419 3.871v-3.057c0-0.828-0.337-1.58-0.879-2.121s-1.293-0.879-2.121-0.879zM3 6h11c0.276 0 0.525 0.111 0.707 0.293s0.293 0.431 0.293 0.707v10c0 0.276-0.111 0.525-0.293 0.707s-0.431 0.293-0.707 0.293h-11c-0.276 0-0.525-0.111-0.707-0.293s-0.293-0.431-0.293-0.707v-10c0-0.276 0.111-0.525 0.293-0.707s0.431-0.293 0.707-0.293z"></path>
</symbol>
<symbol id="icon-video-off" viewBox="0 0 24 24">
<path d="M10.66 6h3.34c0.276 0 0.525 0.111 0.707 0.293s0.293 0.431 0.293 0.707v3.34c0 0.276 0.112 0.526 0.293 0.707l1 1c0.351 0.351 0.898 0.387 1.293 0.103l4.414-3.192v8.042c0 0.552 0.448 1 1 1s1-0.448 1-1v-10c0.001-0.201-0.061-0.408-0.19-0.586-0.324-0.447-0.949-0.548-1.396-0.224l-5.309 3.841-0.105-0.105v-2.926c0-0.828-0.337-1.58-0.879-2.121s-1.293-0.879-2.121-0.879h-3.34c-0.552 0-1 0.448-1 1s0.448 1 1 1zM4.586 6l10.414 10.414v0.586c0 0.276-0.111 0.525-0.293 0.707s-0.431 0.293-0.707 0.293h-11c-0.276 0-0.525-0.111-0.707-0.293s-0.293-0.431-0.293-0.707v-10c0-0.276 0.111-0.525 0.293-0.707s0.431-0.293 0.707-0.293zM0.293 1.707l2.318 2.318c-0.673 0.087-1.277 0.398-1.732 0.854-0.542 0.541-0.879 1.293-0.879 2.121v10c0 0.828 0.337 1.58 0.879 2.121s1.293 0.879 2.121 0.879h11c0.828 0 1.58-0.337 2.121-0.879 0.269-0.269 0.488-0.59 0.64-0.946l5.532 5.532c0.391 0.391 1.024 0.391 1.414 0s0.391-1.024 0-1.414l-22-22c-0.391-0.391-1.024-0.391-1.414 0s-0.391 1.024 0 1.414z"></path>
</symbol>
<symbol id="icon-volume-1" viewBox="0 0 24 24">
<path d="M10 7.081v9.839l-3.375-2.7c-0.17-0.137-0.388-0.22-0.625-0.22h-3v-4h3c0.218 0.001 0.439-0.071 0.625-0.219zM10.375 4.219l-4.726 3.781h-3.649c-0.552 0-1 0.448-1 1v6c0 0.552 0.448 1 1 1h3.649l4.726 3.781c0.431 0.345 1.061 0.275 1.406-0.156 0.148-0.185 0.22-0.407 0.219-0.625v-14c0-0.552-0.448-1-1-1-0.237 0-0.455 0.083-0.625 0.219zM14.833 9.167c0.781 0.781 1.171 1.803 1.171 2.828s-0.39 2.047-1.171 2.828c-0.39 0.391-0.39 1.024 0 1.414s1.024 0.39 1.414 0c1.171-1.171 1.757-2.708 1.757-4.242s-0.586-3.071-1.757-4.242c-0.39-0.391-1.024-0.391-1.414 0s-0.391 1.024 0 1.414z"></path>
</symbol>
<symbol id="icon-volume-2" viewBox="0 0 24 24">
<path d="M10 7.081v9.839l-3.375-2.7c-0.17-0.137-0.388-0.22-0.625-0.22h-3v-4h3c0.218 0.001 0.439-0.071 0.625-0.219zM10.375 4.219l-4.726 3.781h-3.649c-0.552 0-1 0.448-1 1v6c0 0.552 0.448 1 1 1h3.649l4.726 3.781c0.431 0.345 1.061 0.275 1.406-0.156 0.148-0.185 0.22-0.407 0.219-0.625v-14c0-0.552-0.448-1-1-1-0.237 0-0.455 0.083-0.625 0.219zM18.363 5.637c1.757 1.758 2.635 4.059 2.635 6.364 0 2.304-0.878 4.605-2.635 6.362-0.39 0.391-0.39 1.024 0 1.414s1.024 0.39 1.414 0c2.147-2.147 3.22-4.963 3.221-7.776s-1.074-5.63-3.221-7.778c-0.39-0.391-1.024-0.391-1.414 0s-0.391 1.024 0 1.414zM14.833 9.167c0.781 0.781 1.171 1.803 1.171 2.828s-0.39 2.047-1.171 2.828c-0.39 0.391-0.39 1.024 0 1.414s1.024 0.39 1.414 0c1.171-1.171 1.757-2.708 1.757-4.242s-0.586-3.071-1.757-4.242c-0.39-0.391-1.024-0.391-1.414 0s-0.391 1.024 0 1.414z"></path>
</symbol>
<symbol id="icon-volume-x" viewBox="0 0 24 24">
<path d="M10 7.081v9.839l-3.375-2.7c-0.17-0.137-0.388-0.22-0.625-0.22h-3v-4h3c0.218 0.001 0.439-0.071 0.625-0.219zM10.375 4.219l-4.726 3.781h-3.649c-0.552 0-1 0.448-1 1v6c0 0.552 0.448 1 1 1h3.649l4.726 3.781c0.431 0.345 1.061 0.275 1.406-0.156 0.148-0.185 0.22-0.407 0.219-0.625v-14c0-0.552-0.448-1-1-1-0.237 0-0.455 0.083-0.625 0.219zM16.293 9.707l2.293 2.293-2.293 2.293c-0.391 0.391-0.391 1.024 0 1.414s1.024 0.391 1.414 0l2.293-2.293 2.293 2.293c0.391 0.391 1.024 0.391 1.414 0s0.391-1.024 0-1.414l-2.293-2.293 2.293-2.293c0.391-0.391 0.391-1.024 0-1.414s-1.024-0.391-1.414 0l-2.293 2.293-2.293-2.293c-0.391-0.391-1.024-0.391-1.414 0s-0.391 1.024 0 1.414z"></path>
</symbol>
<symbol id="icon-x" viewBox="0 0 24 24">
<path d="M5.293 6.707l5.293 5.293-5.293 5.293c-0.391 0.391-0.391 1.024 0 1.414s1.024 0.391 1.414 0l5.293-5.293 5.293 5.293c0.391 0.391 1.024 0.391 1.414 0s0.391-1.024 0-1.414l-5.293-5.293 5.293-5.293c0.391-0.391 0.391-1.024 0-1.414s-1.024-0.391-1.414 0l-5.293 5.293-5.293-5.293c-0.391-0.391-1.024-0.391-1.414 0s-0.391 1.024 0 1.414z"></path>
</symbol>
<symbol id="icon-zap" viewBox="0 0 24 24">
<path d="M11.585 5.26l-0.577 4.616c0.033 0.716 0.465 1.124 0.992 1.124h6.865l-6.45 7.74 0.577-4.616c-0.033-0.716-0.465-1.124-0.992-1.124h-6.865zM12.232 1.36l-10 12c-0.354 0.424-0.296 1.055 0.128 1.408 0.187 0.157 0.415 0.233 0.64 0.232h7.867l-0.859 6.876c-0.069 0.548 0.32 1.048 0.868 1.116 0.349 0.044 0.678-0.098 0.892-0.352l10-12c0.354-0.424 0.296-1.055-0.128-1.408-0.187-0.157-0.415-0.233-0.64-0.232h-7.867l0.859-6.876c0.069-0.548-0.32-1.048-0.868-1.116-0.349-0.044-0.678 0.098-0.892 0.352z"></path>
</symbol>
</defs>
</svg>
